<?xml version="1.0" standalone="no"?>
<!DOCTYPE svg PUBLIC "-//W3C//DTD SVG 20010904//EN"
 "http://www.w3.org/TR/2001/REC-SVG-20010904/DTD/svg10.dtd">
<svg version="1.0" xmlns="http://www.w3.org/2000/svg"
 width="512.000000pt" height="512.000000pt" viewBox="0 0 512.000000 512.000000"
 preserveAspectRatio="xMidYMid meet">

<g transform="translate(0.000000,512.000000) scale(0.100000,-0.100000)"
fill="#000000" stroke="none">
<path d="M335 5066 c-150 -48 -257 -166 -285 -315 -15 -79 -14 -3602 1 -3673
33 -154 158 -282 310 -317 28 -7 339 -11 837 -11 l793 0 492 -352 c281 -201
504 -354 520 -356 15 -2 41 1 58 9 56 22 59 44 59 388 l0 310 333 3 c286 3
338 6 377 21 108 42 199 132 243 239 22 52 22 64 25 671 l3 618 -35 35 c-44
44 -83 45 -128 5 l-33 -29 -5 -614 -5 -613 -24 -38 c-13 -21 -42 -50 -64 -65
l-41 -27 -473 -5 -473 -5 -27 -28 c-65 -64 -15 -167 82 -167 l45 0 0 -211 c0
-168 -3 -209 -12 -202 -7 6 -202 144 -433 309 l-419 299 -842 5 -842 5 -43 30
c-23 17 -53 50 -66 74 l-23 44 0 1809 c0 1997 -5 1846 63 1916 63 66 -38 62
1764 62 1145 0 1647 -3 1677 -11 56 -14 114 -62 137 -113 17 -38 19 -75 19
-481 l0 -440 -758 -760 -759 -760 -81 -306 c-45 -168 -82 -320 -82 -338 0 -36
34 -77 73 -86 15 -4 142 23 343 75 l319 81 1043 1042 c1151 1150 1096 1090
1096 1216 0 103 -25 146 -162 285 -140 141 -182 166 -287 166 -116 0 -149 -22
-362 -232 l-183 -182 0 345 c0 286 -3 355 -16 400 -32 109 -118 208 -222 257
l-57 27 -1715 2 c-1366 1 -1723 -1 -1755 -11z m4452 -909 c127 -127 136 -148
86 -207 l-26 -32 -148 148 c-81 81 -145 152 -142 157 11 17 69 47 93 47 17 0
54 -30 137 -113z m-227 -232 l145 -145 -900 -900 -900 -900 -147 147 -148 148
897 897 c494 494 900 898 903 898 3 0 70 -65 150 -145z m-1858 -2026 c-9 -8
-235 -69 -240 -65 -3 3 46 184 64 235 3 10 33 -14 94 -74 49 -49 86 -92 82
-96z"/>
<path d="M917 4269 c-32 -18 -50 -75 -37 -114 22 -66 12 -65 495 -65 l437 0
29 29 c38 39 39 87 3 130 l-26 31 -441 0 c-296 -1 -448 -4 -460 -11z"/>
<path d="M2136 4249 c-36 -43 -35 -91 3 -130 l29 -29 345 0 344 0 26 24 c33
31 43 68 27 107 -25 60 -22 59 -401 59 l-347 0 -26 -31z"/>
<path d="M3133 4265 c-12 -8 -27 -31 -33 -50 -14 -43 8 -96 46 -114 31 -14
258 -15 285 -1 53 29 61 121 12 160 -23 18 -40 20 -157 20 -101 0 -137 -4
-153 -15z"/>
<path d="M912 3435 c-39 -33 -48 -74 -27 -115 29 -55 61 -61 295 -58 204 3
209 4 234 27 31 30 42 73 26 112 -23 54 -47 59 -284 59 l-214 0 -30 -25z"/>
<path d="M1688 3431 c-44 -39 -46 -98 -5 -138 l27 -28 575 0 575 0 27 27 c41
41 39 100 -5 139 l-32 29 -565 0 -565 0 -32 -29z"/>
<path d="M1007 2610 c-49 -39 -41 -131 12 -160 25 -13 287 -13 312 0 53 29 61
121 12 160 -23 18 -40 20 -168 20 -128 0 -145 -2 -168 -20z"/>
<path d="M1658 2600 c-27 -28 -30 -36 -25 -73 4 -28 14 -49 32 -64 25 -22 33
-23 231 -23 122 0 213 4 225 10 53 29 61 121 12 160 -24 19 -39 20 -235 20
l-210 0 -30 -30z"/>
<path d="M910 1783 c-40 -37 -47 -78 -20 -121 11 -18 32 -37 46 -42 34 -13
984 -13 1018 0 34 12 60 55 60 98 0 26 -8 41 -32 63 l-32 29 -505 0 -505 0
-30 -27z"/>
</g>
</svg>
