<?xml version="1.0" standalone="no"?>
<!DOCTYPE svg PUBLIC "-//W3C//DTD SVG 20010904//EN"
 "http://www.w3.org/TR/2001/REC-SVG-20010904/DTD/svg10.dtd">
<svg version="1.0" xmlns="http://www.w3.org/2000/svg"
 width="512.000000pt" height="512.000000pt" viewBox="0 0 512.000000 512.000000"
 preserveAspectRatio="xMidYMid meet">

<g transform="translate(0.000000,512.000000) scale(0.100000,-0.100000)"
fill="#000000" stroke="none">
<path d="M363 5016 c-141 -45 -241 -164 -263 -313 -13 -92 -13 -3174 0 -3266
19 -130 92 -231 211 -294 l54 -28 748 -3 c411 -1 747 -6 747 -10 0 -11 -173
-436 -183 -450 -7 -9 -54 -12 -171 -13 -96 0 -174 -5 -193 -12 -139 -52 -214
-207 -168 -347 21 -62 80 -132 140 -163 l40 -22 1235 0 1235 0 41 22 c23 12
60 43 83 69 122 139 76 351 -94 430 -46 22 -63 24 -216 24 l-167 0 -91 227
c-50 126 -91 231 -91 235 0 4 334 9 743 10 l742 3 66 32 c79 39 140 102 177
181 l27 57 0 1685 0 1685 -32 66 c-39 79 -102 140 -181 177 l-57 27 -2170 2
c-1775 1 -2178 -1 -2212 -11z m4337 -127 c66 -14 127 -62 159 -124 l26 -49 0
-1651 c0 -1591 -1 -1651 -19 -1685 -26 -49 -64 -88 -111 -113 l-40 -22 -2155
0 c-2083 0 -2156 1 -2190 19 -49 26 -88 64 -113 111 l-22 40 0 1655 0 1655 28
47 c34 58 84 98 145 114 63 17 4213 20 4292 3z m-1501 -4004 c50 -124 91 -229
91 -235 0 -7 -246 -10 -730 -10 -503 0 -730 3 -730 10 0 6 41 112 91 235 l92
225 547 0 547 0 92 -225z m564 -389 c18 -7 45 -28 60 -45 50 -59 30 -162 -40
-208 -26 -17 -87 -18 -1223 -18 -1136 0 -1197 1 -1223 18 -48 31 -69 75 -64
135 4 58 30 95 82 118 45 20 2360 20 2408 0z"/>
<path d="M421 4694 l-21 -27 0 -1369 0 -1369 25 -24 24 -25 2109 0 c2062 0
2110 0 2133 19 l24 19 0 1380 c0 1343 -1 1380 -19 1401 l-19 21 -2118 0 -2118
0 -20 -26z m4159 -1389 l0 -1285 -2020 0 -2020 0 0 1285 0 1285 2020 0 2020 0
0 -1285z"/>
<path d="M1361 4400 c-305 -64 -545 -291 -622 -588 -28 -108 -28 -278 0 -387
94 -357 401 -597 766 -599 136 0 227 20 350 79 276 133 445 402 445 707 0 141
-20 229 -80 353 -100 205 -263 345 -485 415 -79 25 -295 36 -374 20z m79 -443
l0 -312 -219 -219 c-120 -120 -223 -216 -229 -212 -22 14 -82 124 -107 199
-77 230 -20 478 150 656 40 42 98 91 129 110 63 38 207 91 249 91 l27 0 0
-313z m256 292 c113 -34 182 -77 275 -169 66 -65 95 -102 123 -160 37 -76 66
-166 66 -207 l0 -23 -290 0 -290 0 0 290 0 290 24 0 c13 0 55 -9 92 -21z m462
-751 c-13 -71 -53 -171 -96 -238 -144 -227 -442 -347 -701 -282 -88 23 -188
68 -236 107 l-30 24 220 220 220 221 316 0 316 0 -9 -52z"/>
<path d="M2827 3832 c-324 -324 -367 -371 -367 -398 0 -38 27 -64 66 -64 25 0
77 48 364 335 l335 335 320 -320 c243 -243 327 -320 345 -320 18 0 73 49 217
192 l193 192 0 -37 c0 -72 77 -105 119 -51 19 24 21 40 21 156 0 124 -1 130
-25 153 -23 24 -29 25 -155 25 -73 0 -140 -5 -151 -11 -31 -16 -42 -55 -24
-89 15 -28 27 -33 103 -42 19 -3 -3 -28 -138 -163 l-160 -160 -318 318 c-274
273 -322 317 -347 317 -26 0 -79 -49 -398 -368z"/>
<path d="M3162 3484 l-22 -15 0 -620 c0 -606 0 -619 20 -639 19 -19 33 -20
229 -20 191 0 211 2 232 19 l24 19 0 615 c0 591 -1 616 -19 636 -18 20 -28 21
-230 21 -175 0 -215 -3 -234 -16z m348 -634 l0 -520 -120 0 -120 0 0 513 c0
283 3 517 7 520 3 4 57 7 120 7 l113 0 0 -520z"/>
<path d="M2492 3030 c-12 -5 -27 -22 -32 -36 -7 -17 -10 -162 -8 -396 l3 -370
24 -19 c21 -17 41 -19 232 -19 196 0 210 1 229 20 19 19 20 33 20 404 l0 385
-26 20 c-25 20 -39 21 -223 20 -108 0 -206 -4 -219 -9z m338 -415 l0 -285
-120 0 -120 0 0 285 0 285 120 0 120 0 0 -285z"/>
<path d="M3840 2780 c-19 -19 -20 -33 -20 -285 0 -252 1 -266 20 -285 19 -19
33 -20 234 -20 l215 0 20 26 c20 25 21 39 21 276 0 245 -4 280 -34 300 -6 4
-107 8 -223 8 -200 0 -214 -1 -233 -20z m350 -280 l0 -170 -115 0 -115 0 0
170 0 170 115 0 115 0 0 -170z"/>
<path d="M735 2630 c-9 -10 -17 -31 -17 -45 0 -14 8 -35 17 -45 18 -20 34 -20
665 -20 614 0 648 1 663 18 22 25 21 75 -1 95 -17 15 -77 17 -664 17 -629 0
-645 0 -663 -20z"/>
<path d="M754 2320 c-28 -11 -35 -23 -36 -62 -1 -21 6 -37 22 -50 21 -17 49
-18 407 -18 l384 0 24 25 c14 13 25 33 25 45 0 12 -11 32 -25 45 l-24 25 -378
-1 c-208 0 -388 -4 -399 -9z"/>
<path d="M2509 1661 c-52 -42 -17 -131 51 -131 44 0 74 31 74 75 0 44 -30 75
-74 75 -15 0 -38 -8 -51 -19z"/>
</g>
</svg>
