<?xml version="1.0" standalone="no"?>
<!DOCTYPE svg PUBLIC "-//W3C//DTD SVG 20010904//EN"
 "http://www.w3.org/TR/2001/REC-SVG-20010904/DTD/svg10.dtd">
<svg version="1.0" xmlns="http://www.w3.org/2000/svg"
 width="512.000000pt" height="512.000000pt" viewBox="0 0 512.000000 512.000000"
 preserveAspectRatio="xMidYMid meet">

<g transform="translate(0.000000,512.000000) scale(0.100000,-0.100000)"
fill="#000000" stroke="none">
<path d="M29 5091 l-29 -29 0 -966 0 -965 24 -28 24 -28 336 0 335 0 23 23
c20 20 23 34 26 127 l4 105 688 0 688 0 6 -27 c19 -79 130 -190 209 -209 l27
-6 0 -97 0 -97 -57 -12 c-32 -7 -80 -24 -108 -37 -49 -24 -56 -25 -271 -25
-255 0 -396 -12 -491 -41 -276 -85 -488 -298 -572 -573 -27 -87 -41 -214 -41
-373 l0 -121 -287 -4 c-269 -4 -292 -6 -344 -26 -80 -32 -142 -90 -181 -170
l-33 -67 -3 -521 -3 -522 25 -29 24 -28 263 -5 264 -5 24 -45 c14 -25 57 -77
96 -115 231 -231 599 -231 830 0 39 38 81 91 95 118 l25 47 745 -2 745 -3 24
-45 c14 -25 57 -77 96 -115 231 -231 599 -231 830 0 39 38 81 91 95 117 l25
47 433 3 434 3 24 28 25 29 -3 522 -3 521 -33 67 c-39 80 -101 138 -181 170
-55 22 -65 23 -513 26 l-458 3 0 112 c-1 250 -28 388 -107 539 -78 149 -203
273 -352 351 -156 82 -287 107 -560 107 -124 0 -140 2 -186 25 -27 13 -76 30
-107 37 l-58 12 0 97 0 97 28 6 c79 20 175 115 208 208 19 52 21 153 4 203
-11 35 -11 37 22 69 70 68 73 81 76 372 3 261 3 262 -20 288 -13 14 -236 160
-497 326 l-474 300 -568 0 -567 0 -4 106 c-3 102 -4 107 -31 130 l-28 24 -325
0 -326 0 -29 -29z m571 -996 l0 -855 -215 0 -215 0 0 855 0 855 215 0 215 0 0
-855z m1694 318 l436 -278 0 -197 c0 -210 -5 -238 -47 -257 -39 -18 -63 -13
-94 18 -29 29 -29 31 -29 139 0 95 -3 113 -20 135 -11 14 -28 28 -38 31 -46
15 -933 146 -986 146 -169 0 -284 -178 -215 -330 27 -60 64 -98 124 -126 50
-24 51 -24 428 -24 397 0 424 -3 441 -45 13 -35 6 -76 -19 -100 l-24 -25 -741
0 -740 0 0 595 0 595 544 0 544 0 436 -277z m-341 -493 c215 -33 402 -62 415
-65 17 -4 22 -12 22 -40 l0 -34 -52 27 -52 27 -399 5 -399 5 -19 24 c-40 49
-8 111 57 111 19 0 211 -27 427 -60z m555 -379 c15 -10 45 -24 67 -31 53 -16
65 -34 65 -93 0 -65 -24 -113 -73 -145 -74 -49 -189 -25 -236 50 -12 20 -12
23 4 33 65 37 135 134 135 188 0 22 6 21 38 -2z m61 -822 c152 -35 275 -157
317 -314 55 -202 -69 -433 -269 -501 -26 -9 -55 -26 -65 -39 -19 -24 -72 -261
-72 -323 0 -18 16 -64 35 -102 l35 -70 -35 -70 c-42 -83 -44 -123 -10 -190 14
-27 25 -53 25 -57 0 -5 -31 -32 -70 -61 l-70 -52 0 453 c0 510 4 483 -78 518
-195 84 -301 297 -248 499 58 221 285 360 505 309z m-591 -76 c-1 -5 -18 -38
-35 -74 -86 -176 -83 -379 10 -554 39 -74 144 -182 214 -221 l53 -29 0 -512 0
-512 24 -27 c17 -21 33 -28 58 -28 30 0 65 22 221 139 174 130 207 162 207
203 0 9 -16 50 -36 92 l-35 76 35 74 c20 41 36 84 36 95 0 12 -18 59 -40 105
l-41 83 20 96 c10 52 23 97 28 98 43 15 150 90 203 144 178 179 220 454 105
682 -19 38 -35 71 -35 74 0 12 209 -9 280 -28 41 -11 106 -37 145 -57 96 -50
227 -181 277 -277 66 -128 71 -153 77 -437 6 -254 6 -257 30 -282 l24 -26 358
0 358 0 3 -276 3 -276 28 -24 c28 -23 32 -24 213 -24 l184 0 0 -215 0 -215
-344 0 -344 0 1 88 c0 277 -182 510 -453 578 -88 22 -252 15 -334 -14 -88 -32
-161 -79 -232 -150 -111 -110 -184 -298 -170 -440 l7 -62 -690 0 -689 0 1 88
c0 277 -182 510 -453 578 -88 22 -252 15 -334 -14 -88 -32 -161 -79 -232 -150
-111 -110 -184 -298 -170 -439 l7 -63 -176 0 -175 0 0 443 c0 439 0 443 23
487 26 52 59 78 113 90 21 5 181 10 355 10 314 0 316 0 336 23 19 21 21 38 26
262 3 132 11 263 17 290 16 70 91 221 138 277 116 139 283 230 455 248 97 10
350 12 345 3z m2879 -1127 c75 -38 93 -89 93 -266 l0 -140 -130 0 -130 0 0
208 c0 115 3 212 8 216 11 12 127 -1 159 -18z m-3621 -513 c277 -93 383 -411
217 -652 -146 -212 -457 -238 -641 -54 -266 266 -83 719 294 722 50 1 99 -5
130 -16z m2560 0 c277 -93 383 -411 217 -652 -146 -212 -457 -238 -641 -54
-266 266 -83 719 294 722 50 1 99 -5 130 -16z"/>
<path d="M2410 2551 c-79 -26 -132 -72 -166 -146 -77 -162 49 -355 231 -355
180 0 307 191 233 352 -29 61 -67 102 -122 130 -43 22 -136 32 -176 19z m121
-190 c31 -31 36 -59 17 -94 -17 -32 -39 -46 -73 -46 -47 0 -85 40 -85 89 0 30
53 80 85 80 16 0 38 -12 56 -29z"/>
<path d="M1586 2374 c-172 -42 -320 -186 -373 -364 -13 -42 -17 -99 -17 -237
-1 -179 -1 -182 23 -207 l24 -26 359 0 358 0 0 85 0 85 -296 0 -296 0 4 133
c4 152 19 197 97 274 54 54 99 78 179 93 l62 13 0 83 0 84 -32 -1 c-18 0 -59
-7 -92 -15z"/>
<path d="M3240 2306 c0 -74 2 -86 17 -86 39 0 104 -43 128 -84 24 -42 25 -48
25 -234 l0 -192 -255 0 -255 0 0 -85 0 -85 318 0 319 0 22 24 c22 23 22 26 19
302 l-3 279 -28 53 c-54 102 -150 172 -259 187 l-48 7 0 -86z"/>
<path d="M4020 5105 c-256 -48 -473 -190 -614 -399 -106 -159 -158 -327 -159
-516 0 -161 23 -265 91 -413 l36 -79 -107 -214 c-66 -131 -107 -226 -107 -245
0 -40 39 -79 79 -79 19 0 114 41 245 107 l214 107 79 -36 c148 -68 252 -91
413 -91 133 1 225 19 350 70 277 113 487 362 556 659 27 116 26 310 -4 427
-84 336 -352 605 -684 688 -108 27 -287 33 -388 14z m355 -181 c386 -104 634
-491 561 -876 -47 -251 -192 -441 -425 -558 -97 -48 -199 -71 -322 -72 -152
-1 -256 26 -395 103 -39 21 -78 39 -86 39 -9 0 -70 -27 -138 -60 -67 -34 -125
-59 -127 -56 -2 2 23 58 56 125 34 66 61 128 61 137 0 9 -18 49 -39 88 -77
139 -104 243 -103 395 2 367 254 670 619 746 84 18 253 12 338 -11z"/>
<path d="M4100 4641 c0 -45 -2 -50 -30 -61 -45 -19 -106 -85 -126 -136 -35
-92 -6 -213 67 -281 32 -29 107 -63 142 -63 15 0 43 -6 61 -14 83 -34 56 -156
-34 -156 -39 0 -80 32 -80 63 0 15 -12 17 -85 17 l-85 0 0 -30 c0 -66 66 -162
135 -194 33 -16 35 -20 35 -66 l0 -50 85 0 85 0 0 50 c0 44 3 51 29 64 82 43
135 131 134 226 0 136 -78 223 -228 254 -79 16 -105 39 -105 90 0 58 60 95
115 72 29 -12 36 -23 50 -70 10 -32 26 -62 38 -71 34 -23 80 -19 108 11 60 64
0 222 -103 275 -36 19 -38 22 -38 69 l0 50 -85 0 -85 0 0 -49z"/>
</g>
</svg>
