<svg version="1.1" id="Layer_1" xmlns="http://www.w3.org/2000/svg" xmlns:xlink="http://www.w3.org/1999/xlink" x="0px" y="0px"
	 width="100%" viewBox="0 0 512 512" enable-background="new 0 0 512 512" xml:space="preserve">
<path fill="#000000" opacity="1.000000" stroke="none" 
	d="
M289.000000,1.000001 
	C363.593719,1.000000 438.187408,1.000000 513.000000,1.000000 
	C513.000000,75.354088 513.000000,149.708389 512.679688,224.857468 
	C511.850861,223.768097 511.342407,221.883942 510.894196,219.590866 
	C510.009583,215.108749 509.064697,211.035553 508.066986,206.538467 
	C506.954041,201.742950 505.893890,197.371323 504.905121,192.606079 
	C504.261597,189.807922 503.546661,187.403351 502.903442,184.605011 
	C501.354034,179.792404 499.732941,175.373581 498.062134,170.581650 
	C497.618561,168.804749 497.224670,167.400925 496.787476,165.633209 
	C495.201691,161.833191 493.659210,158.397079 492.058746,154.587311 
	C489.705750,149.461777 487.410797,144.709900 485.062744,139.606110 
	C483.950897,137.502884 482.892151,135.751587 481.812317,133.658447 
	C480.563995,131.528900 479.336761,129.741196 478.056854,127.592178 
	C476.353363,124.451767 474.702545,121.672646 472.914001,118.574234 
	C469.865295,114.131973 466.954315,110.009010 463.909180,105.570038 
	C461.556152,102.489502 459.337250,99.724968 456.977966,96.640930 
	C454.169403,93.213844 451.501251,90.106270 448.818604,86.664192 
	C444.550903,82.182556 440.297699,78.035423 435.918274,73.581192 
	C432.547455,70.138161 429.302795,67.002228 425.920532,63.557686 
	C423.871887,61.797390 421.960846,60.345703 419.902588,58.582626 
	C414.851624,54.809868 409.947906,51.348495 404.908478,47.568863 
	C400.558990,44.486336 396.345184,41.722076 392.042236,38.699333 
	C391.638641,38.344082 391.324127,38.247322 390.772156,38.076172 
	C390.534637,38.001785 390.048859,37.893288 389.895233,37.576500 
	C378.843781,31.806831 367.945953,26.353954 356.873413,20.570250 
	C356.209442,20.158871 355.683258,20.168383 355.236328,19.984827 
	C334.378326,11.418082 312.948120,5.047243 290.393890,2.891064 
	C289.873749,2.841339 289.462189,1.655764 289.000000,1.000001 
z"/>
<path fill="#000000" opacity="1.000000" stroke="none" 
	d="
M513.000000,289.000000 
	C513.000000,363.593719 513.000000,438.187408 513.000000,513.000000 
	C438.645905,513.000000 364.291626,513.000000 289.188477,512.625977 
	C292.033752,511.503387 295.606659,510.627136 299.225494,510.028137 
	C316.341980,507.195007 333.106567,503.131012 349.431519,496.062378 
	C362.238403,490.025848 374.663025,484.035889 387.412384,477.910492 
	C392.527710,474.532196 397.318268,471.289368 402.461700,468.018555 
	C405.579834,466.007294 408.345123,464.024017 411.421448,461.907837 
	C414.837952,459.219086 417.943390,456.663208 421.360962,453.968689 
	C425.820740,449.900909 429.968384,445.971771 434.421082,441.912842 
	C438.857391,437.534241 442.988617,433.285492 447.427521,428.878540 
	C448.861969,427.160889 449.988739,425.601440 451.422729,423.910095 
	C454.190765,420.866455 456.651611,417.954773 459.418335,414.888062 
	C461.855957,411.501770 463.987671,408.270477 466.431183,404.901672 
	C468.439789,402.175934 470.136597,399.587677 471.984009,396.684387 
	C473.461578,394.260345 474.788544,392.151337 476.422363,389.884918 
	C478.097137,387.151489 479.465057,384.575500 480.988647,381.678741 
	C483.041199,377.904968 484.938171,374.451935 486.997314,370.666138 
	C489.150604,365.902191 491.141693,361.471039 493.455505,356.858795 
	C495.319427,352.075134 496.860565,347.472534 498.661255,342.574890 
	C499.965515,338.896393 501.010254,335.512939 502.395813,331.943604 
	C503.199005,329.520172 503.661377,327.282562 504.457855,324.848450 
	C505.472015,321.434631 506.152069,318.217316 506.913605,314.607941 
	C507.368317,312.161224 507.741516,310.106506 508.460449,307.836761 
	C509.481781,303.199860 510.157379,298.778015 510.904846,293.965485 
	C511.651123,292.049896 512.325562,290.524963 513.000000,289.000000 
z"/>
<path fill="#000000" opacity="1.000000" stroke="none" 
	d="
M225.000000,513.000000 
	C150.406296,513.000000 75.812599,513.000000 1.000000,513.000000 
	C1.000000,438.645905 1.000000,364.291626 1.229286,289.141479 
	C1.934230,288.577728 2.409889,288.809814 2.934523,289.465942 
	C3.284645,292.273743 3.585791,294.657532 3.935798,297.455688 
	C4.378760,300.246948 4.772862,302.623840 5.095756,305.399414 
	C5.738595,308.531677 6.452643,311.265228 7.096112,314.397827 
	C7.982190,318.212830 8.938847,321.628845 9.941717,325.432251 
	C10.640576,327.916779 11.293221,330.013947 11.969658,332.501801 
	C13.294175,336.609863 14.594898,340.327209 15.940429,344.427612 
	C17.284519,347.887054 18.583803,350.963501 19.933964,354.422119 
	C22.619747,360.551758 25.254652,366.299133 27.943371,372.410858 
	C29.720274,375.849945 31.443367,378.924713 33.198654,382.346497 
	C34.782070,385.143158 36.333290,387.592834 37.939278,390.393494 
	C39.384651,392.829498 40.775253,394.914490 42.195595,397.341644 
	C44.466896,400.833771 46.708466,403.983704 49.091953,407.439453 
	C51.138832,410.197876 53.043793,412.650543 55.081982,415.411469 
	C57.771969,418.493774 60.328720,421.267792 62.939270,424.376953 
	C64.289330,426.154572 65.585587,427.596985 67.019333,429.348145 
	C71.399368,433.785431 75.641930,437.913971 80.021912,442.351257 
	C84.424263,446.477570 88.689186,450.295166 93.091766,454.427002 
	C97.137779,457.531860 101.046135,460.322449 105.089096,463.422791 
	C107.447449,465.171478 109.671196,466.610382 112.039665,468.367859 
	C117.775154,472.162964 123.365929,475.639526 129.118713,479.427399 
	C130.704208,480.503143 132.088272,481.354980 133.557541,482.018005 
	C144.010757,486.735077 154.481430,491.413513 165.123627,496.427795 
	C183.856323,503.550537 202.766922,508.912659 222.490707,511.077301 
	C223.386688,511.175629 224.166229,512.334900 225.000000,513.000000 
z"/>
<path fill="#000000" opacity="1.000000" stroke="none" 
	d="
M0.999999,224.000000 
	C1.000000,149.739456 1.000000,75.478920 1.000000,1.000000 
	C75.354088,1.000000 149.708389,1.000000 224.866638,1.340597 
	C220.510422,2.784649 215.385468,4.104007 210.183716,4.952642 
	C191.708145,7.966823 173.943283,13.281788 156.503784,20.979822 
	C144.709000,26.991438 133.286316,32.977146 121.546326,39.100571 
	C116.443001,42.475952 111.656982,45.713619 106.559189,49.088383 
	C102.499382,52.206051 98.751350,55.186626 94.669113,58.176548 
	C92.201767,60.081490 90.068619,61.977085 87.628769,64.012695 
	C84.198563,67.399391 81.075058,70.646080 77.640404,74.023621 
	C73.179192,78.422363 69.029129,82.690262 64.563950,87.089569 
	C61.793232,90.467476 59.337631,93.713974 56.569683,97.090775 
	C54.133324,100.133438 52.009312,103.045792 49.567444,106.093887 
	C46.624924,110.239594 44.000267,114.249573 41.234909,118.340378 
	C41.094204,118.421204 41.082264,118.745522 40.818314,118.870758 
	C40.423260,119.322891 40.292164,119.649780 40.016724,120.301117 
	C38.208813,123.404076 36.545250,126.182587 34.579166,129.102386 
	C33.501358,130.790329 32.726074,132.337006 31.630833,134.040024 
	C30.501709,136.116959 29.692537,138.037521 28.566051,140.118973 
	C26.274170,144.624939 24.299599,148.970016 22.173153,153.634979 
	C21.069616,156.303467 20.117954,158.652069 19.001366,161.339508 
	C17.280167,165.784836 15.723892,169.891327 14.088770,174.373917 
	C13.322981,177.131836 12.636039,179.513672 11.607939,182.088287 
	C10.233472,186.186783 9.200161,190.092484 8.093216,194.399689 
	C7.401791,198.201157 6.784001,201.601120 5.980040,205.361755 
	C4.918373,211.481155 4.042877,217.239853 2.982357,223.351440 
	C2.198220,223.802887 1.599109,223.901443 0.999999,224.000000 
z"/>
<path fill="#9659F2" opacity="1.000000" stroke="none" 
	d="
M1.000000,248.000000 
	C1.000000,243.310745 1.000000,238.621490 1.468649,233.462799 
	C47.930119,232.995087 93.922935,232.996811 140.009552,233.397675 
	C146.812683,236.673706 149.707153,235.495667 151.597946,229.162842 
	C152.018234,227.755188 152.568512,226.386337 153.494629,225.000061 
	C155.681564,225.016357 157.432816,225.032257 159.166656,225.447876 
	C158.456802,228.694168 157.764374,231.540756 157.034576,234.540955 
	C223.893433,234.540955 290.259521,234.540955 356.800446,234.540955 
	C356.421173,232.245056 356.101898,230.312363 356.058350,228.083008 
	C357.901245,227.524338 359.468414,227.262329 361.226868,227.315521 
	C364.145172,234.895874 364.145172,234.895615 372.327881,234.901138 
	C372.817688,234.901474 373.307526,234.910706 374.278320,234.936127 
	C420.839508,234.970978 466.919769,234.985489 513.000000,235.000000 
	C513.000000,236.714355 513.000000,238.428711 512.531372,240.571899 
	C473.218231,241.000916 434.373688,240.965073 395.529663,241.095383 
	C393.321777,241.102798 391.118500,242.471161 388.579865,243.007172 
	C386.072601,242.242508 383.905548,241.221436 381.723267,241.187851 
	C370.805634,241.019913 359.884003,241.110748 348.963776,241.110703 
	C335.102386,241.110641 335.103577,241.111115 330.455414,254.130035 
	C330.346039,254.436447 330.131805,254.705399 329.594055,254.931915 
	C327.484680,254.581009 325.747803,254.289993 324.032532,253.620804 
	C325.286377,249.350861 326.518585,245.459091 327.815552,241.362793 
	C280.373077,241.362793 233.448486,241.362793 186.086182,241.362793 
	C187.436951,245.804382 188.681854,249.897858 189.548553,254.012421 
	C187.437607,254.358398 185.704849,254.683289 183.755920,254.721313 
	C182.427109,251.305984 181.034073,248.243332 180.279800,245.030716 
	C179.506622,241.737518 177.689148,241.023361 174.591644,241.052689 
	C160.459320,241.186539 146.323700,241.221024 132.192123,241.052429 
	C127.158676,240.992386 124.286804,242.872177 123.372253,247.997589 
	C82.276154,247.998611 41.638077,247.999313 1.000000,248.000000 
z"/>
<path fill="#F109FD" opacity="1.000000" stroke="none" 
	d="
M156.875885,20.953911 
	C173.943283,13.281788 191.708145,7.966823 210.183716,4.952642 
	C215.385468,4.104007 220.510422,2.784649 225.335297,1.340597 
	C246.020889,1.000000 267.041779,1.000000 288.531342,1.000001 
	C289.462189,1.655764 289.873749,2.841339 290.393890,2.891064 
	C312.948120,5.047243 334.378326,11.418082 355.236328,19.984827 
	C355.683258,20.168383 356.209442,20.158871 356.549072,20.837048 
	C354.599548,21.623127 352.799683,21.975498 350.999664,21.976318 
	C288.565887,22.004747 226.132126,22.011032 163.698425,21.955893 
	C161.423935,21.953884 159.150055,21.302605 156.875885,20.953911 
z"/>
<path fill="#29B7E4" opacity="1.000000" stroke="none" 
	d="
M225.468658,513.000000 
	C224.166229,512.334900 223.386688,511.175629 222.490707,511.077301 
	C202.766922,508.912659 183.856323,503.550537 165.404175,496.160034 
	C167.742203,495.046051 169.976105,494.070068 172.211441,494.066803 
	C229.427994,493.982666 286.644714,493.981689 343.861206,494.088562 
	C345.591766,494.091797 347.319916,495.406036 349.049225,496.109009 
	C333.106567,503.131012 316.341980,507.195007 299.225494,510.028137 
	C295.606659,510.627136 292.033752,511.503387 288.719849,512.625977 
	C267.979095,513.000000 246.958206,513.000000 225.468658,513.000000 
z"/>
<path fill="#9A55F2" opacity="1.000000" stroke="none" 
	d="
M513.000000,234.545898 
	C466.919769,234.985489 420.839508,234.970978 374.280945,234.557404 
	C372.255554,228.437729 370.708496,222.717117 369.522461,216.927734 
	C371.826324,216.574142 373.769135,216.289307 375.841827,216.391647 
	C376.627350,219.101959 377.282990,221.425110 378.009033,223.997650 
	C383.905273,223.997650 389.518768,224.350372 395.044983,223.810074 
	C397.031036,223.615891 398.806824,221.271286 401.166931,219.930191 
	C438.048187,219.968109 474.441040,219.983948 510.833923,219.999802 
	C511.342407,221.883942 511.850861,223.768097 512.679688,225.326126 
	C513.000000,228.030594 513.000000,231.061188 513.000000,234.545898 
z"/>
<path fill="#905EF1" opacity="1.000000" stroke="none" 
	d="
M388.913055,243.206085 
	C391.118500,242.471161 393.321777,241.102798 395.529663,241.095383 
	C434.373688,240.965073 473.218231,241.000916 512.531372,241.000366 
	C513.000000,246.022095 513.000000,251.044189 512.531372,256.533142 
	C466.754669,256.999969 421.446594,257.024292 376.138824,256.920929 
	C374.091614,256.916260 372.046997,255.756882 370.461517,255.041061 
	C373.903900,254.894150 376.885864,254.802383 379.868011,254.796158 
	C389.323669,254.776398 389.323730,254.788757 389.001343,245.690430 
	C388.972015,244.862320 388.942474,244.034210 388.913055,243.206085 
z"/>
<path fill="#846AEF" opacity="1.000000" stroke="none" 
	d="
M2.885543,289.041931 
	C2.409889,288.809814 1.934230,288.577728 1.229286,288.672821 
	C1.000000,285.638702 1.000000,282.277435 1.468657,278.458069 
	C42.806862,277.999695 83.676414,277.999390 124.650490,278.428192 
	C126.127342,279.572052 127.485519,280.871643 128.874329,280.905273 
	C136.998306,281.101776 145.129486,281.004242 153.258224,281.001495 
	C160.124435,280.999176 160.124435,280.996490 159.222397,274.050720 
	C161.475891,274.023499 163.278168,274.012543 165.287598,274.342682 
	C167.042618,284.438446 164.730453,287.191071 154.952469,287.212097 
	C149.955475,287.222870 144.955872,287.114075 139.962158,287.242584 
	C134.852783,287.374054 129.749161,287.729553 124.196747,287.990662 
	C86.253822,287.996216 48.757118,287.975983 11.260582,288.044922 
	C8.468298,288.050049 5.677191,288.694611 2.885543,289.041931 
z"/>
<path fill="#9A55F2" opacity="1.000000" stroke="none" 
	d="
M139.915756,232.998535 
	C93.922935,232.996811 47.930119,232.995087 1.468649,232.996689 
	C1.000000,230.299988 1.000000,227.599976 0.999999,224.449982 
	C1.599109,223.901443 2.198220,223.802887 3.440284,223.351761 
	C36.388844,222.999252 68.694542,223.036209 100.999947,222.955139 
	C105.294006,222.944366 109.586563,222.334015 114.126884,222.315247 
	C119.592896,223.091568 124.834763,223.381256 130.023651,224.070068 
	C134.310486,224.639130 136.610657,222.805496 138.080200,218.928223 
	C140.242065,219.309494 142.010193,219.654709 143.764221,220.365540 
	C142.471985,224.820282 141.193878,228.909409 139.915756,232.998535 
z"/>
<path fill="#8D62F0" opacity="1.000000" stroke="none" 
	d="
M1.000000,264.000000 
	C1.000000,261.629425 1.000000,259.258881 1.468657,256.444153 
	C40.465664,256.000000 78.994049,256.021149 117.522255,255.944901 
	C119.724663,255.940536 121.925499,255.140121 124.586029,254.734711 
	C130.822144,254.792450 136.607803,254.640137 142.374329,254.904770 
	C149.992981,255.254395 156.045761,258.832611 160.354309,264.804565 
	C157.868378,265.293732 155.831055,265.685120 153.476395,265.941711 
	C145.105789,259.655945 135.681595,261.524994 126.629967,261.423126 
	C125.935249,261.415314 125.221489,263.099457 124.015549,263.997894 
	C82.676338,263.999054 41.838169,263.999512 1.000000,264.000000 
z"/>
<path fill="#846AEF" opacity="1.000000" stroke="none" 
	d="
M513.000000,279.000000 
	C513.000000,281.042328 513.000000,283.084625 512.531372,285.560608 
	C473.097717,285.996185 434.132690,285.981140 395.167847,286.047333 
	C393.100555,286.050842 391.034424,286.741516 388.502655,287.151428 
	C377.415497,287.192322 366.792389,287.284363 356.171875,287.158051 
	C350.782715,287.093994 347.830719,283.967560 348.174072,278.626007 
	C348.339325,276.055481 349.365753,273.540253 350.380402,271.015076 
	C352.482544,271.352081 354.206543,271.674011 355.888184,272.368774 
	C355.384766,275.373169 354.923737,278.004730 354.397034,281.011017 
	C365.796326,281.011017 376.120514,281.073914 386.441589,280.922668 
	C387.589783,280.905853 388.720184,279.670166 390.336334,278.999878 
	C431.542572,279.000000 472.271271,279.000000 513.000000,279.000000 
z"/>
<path fill="#8D62F0" opacity="1.000000" stroke="none" 
	d="
M355.930542,271.995941 
	C354.206543,271.674011 352.482544,271.352081 350.377594,270.654297 
	C353.860260,261.525818 360.340454,256.229797 370.001190,255.135345 
	C372.046997,255.756882 374.091614,256.916260 376.138824,256.920929 
	C421.446594,257.024292 466.754669,256.999969 512.531372,257.000000 
	C513.000000,258.714355 513.000000,260.428711 512.588623,262.645050 
	C509.713928,263.431366 507.250977,263.960083 504.787262,263.963440 
	C466.478119,264.015503 428.168823,263.999573 389.745392,263.635681 
	C388.322296,262.601898 387.045013,261.440826 385.698517,261.354034 
	C381.725677,261.097839 377.723053,261.179962 373.736359,261.287842 
	C365.812164,261.502319 359.817474,265.020599 355.930542,271.995941 
z"/>
<path fill="#905EF1" opacity="1.000000" stroke="none" 
	d="
M124.127068,254.710205 
	C121.925499,255.140121 119.724663,255.940536 117.522255,255.944901 
	C78.994049,256.021149 40.465664,256.000000 1.468657,256.000000 
	C1.000000,253.629440 1.000000,251.258896 1.000000,248.444168 
	C41.638077,247.999313 82.276154,247.998611 123.434875,248.416351 
	C124.012703,250.793243 124.069885,252.751724 124.127068,254.710205 
z"/>
<path fill="#8666F0" opacity="1.000000" stroke="none" 
	d="
M513.000000,278.555847 
	C472.271271,279.000000 431.542572,279.000000 390.255615,278.561279 
	C389.752808,275.748352 389.808197,273.374176 390.340790,271.000000 
	C431.545319,271.000000 472.272675,271.000000 513.000000,271.000000 
	C513.000000,273.370575 513.000000,275.741119 513.000000,278.555847 
z"/>
<path fill="#8964F0" opacity="1.000000" stroke="none" 
	d="
M1.000000,264.444153 
	C41.838169,263.999512 82.676338,263.999054 124.070496,264.434448 
	C124.594261,267.205688 124.562042,269.541138 124.028641,271.904816 
	C82.684982,271.955383 41.842491,271.977692 1.000000,272.000000 
	C1.000000,269.629425 1.000000,267.258881 1.000000,264.444153 
z"/>
<path fill="#806CEF" opacity="1.000000" stroke="none" 
	d="
M388.967773,287.112305 
	C391.034424,286.741516 393.100555,286.050842 395.167847,286.047333 
	C434.132690,285.981140 473.097717,285.996185 512.531372,285.997131 
	C513.000000,286.750000 513.000000,287.500000 513.000000,288.625000 
	C512.325562,290.524963 511.651123,292.049896 510.384766,293.884857 
	C507.464844,294.130005 505.136871,294.009247 502.808838,294.008545 
	C465.188019,293.996948 427.567200,294.000671 389.865967,293.608765 
	C389.512970,291.181824 389.240356,289.147064 388.967773,287.112305 
z"/>
<path fill="#8964F0" opacity="1.000000" stroke="none" 
	d="
M513.000000,270.555847 
	C472.272675,271.000000 431.545319,271.000000 390.258850,270.568054 
	C389.752991,268.090515 389.806305,266.044952 389.859589,263.999359 
	C428.168823,263.999573 466.478119,264.015503 504.787262,263.963440 
	C507.250977,263.960083 509.713928,263.431366 512.588623,263.073517 
	C513.000000,265.370575 513.000000,267.741119 513.000000,270.555847 
z"/>
<path fill="#8666F0" opacity="1.000000" stroke="none" 
	d="
M1.000000,272.428467 
	C41.842491,271.977692 82.684982,271.955383 124.119583,272.272003 
	C124.656456,274.406982 124.601204,276.203033 124.545959,277.999084 
	C83.676414,277.999390 42.806862,277.999695 1.468657,278.000000 
	C1.000000,276.285645 1.000000,274.571289 1.000000,272.428467 
z"/>
<path fill="#BB38F6" opacity="1.000000" stroke="none" 
	d="
M22.325031,153.315109 
	C24.299599,148.970016 26.274170,144.624939 29.042084,140.129303 
	C181.595566,139.971832 333.355713,139.964935 485.115845,139.958023 
	C487.410797,144.709900 489.705750,149.461777 491.624146,154.591782 
	C488.617065,154.646774 485.986877,154.045563 483.355927,154.041992 
	C440.390198,153.983551 397.424286,153.965454 354.458832,154.090881 
	C351.959991,154.098175 349.464966,155.406982 346.590179,156.019440 
	C342.667664,155.202713 339.124786,153.853378 335.578400,153.844177 
	C283.107544,153.708069 230.636002,153.688660 178.165436,153.870850 
	C174.170929,153.884705 170.182434,155.625504 165.904419,156.227325 
	C163.518707,155.593735 161.420044,155.039352 159.320709,155.036911 
	C115.997192,154.986465 72.673546,155.025009 29.350195,154.926971 
	C27.007271,154.921661 24.666698,153.876312 22.325031,153.315109 
z"/>
<path fill="#C92CF8" opacity="1.000000" stroke="none" 
	d="
M41.375610,118.259544 
	C44.000267,114.249573 46.624924,110.239594 49.985981,106.172180 
	C53.017567,106.409874 55.312672,106.962578 57.607948,106.963287 
	C191.185654,107.004570 324.763367,107.004784 458.341064,106.953911 
	C460.241974,106.953186 462.142609,106.257416 464.043335,105.886040 
	C466.954315,110.009010 469.865295,114.131973 472.590240,118.842361 
	C470.937317,119.619789 469.470490,119.975922 468.003571,119.976181 
	C327.786377,120.001328 187.569214,120.006577 47.352070,119.926949 
	C45.359600,119.925812 43.367748,118.839432 41.375610,118.259544 
z"/>
<path fill="#D621FA" opacity="1.000000" stroke="none" 
	d="
M64.879066,86.958160 
	C69.029129,82.690262 73.179192,78.422363 77.963638,74.292076 
	C80.231964,74.619751 81.865883,74.975853 83.499878,74.976219 
	C199.113098,75.002258 314.726318,75.005249 430.339508,74.953705 
	C432.241333,74.952850 434.142822,74.258842 436.044464,73.888298 
	C440.297699,78.035423 444.550903,82.182556 448.360596,86.664536 
	C320.237701,86.985641 192.558380,86.971901 64.879066,86.958160 
z"/>
<path fill="#D125F9" opacity="1.000000" stroke="none" 
	d="
M64.563950,87.089569 
	C192.558380,86.971901 320.237701,86.985641 448.375061,86.999039 
	C451.501251,90.106270 454.169403,93.213844 456.531738,96.650444 
	C434.784088,97.319649 413.341644,97.988701 391.900665,97.944878 
	C280.227570,97.716637 168.554871,97.306984 56.882027,96.960472 
	C59.337631,93.713974 61.793232,90.467476 64.563950,87.089569 
z"/>
<path fill="#EB0EFC" opacity="1.000000" stroke="none" 
	d="
M156.503784,20.979822 
	C159.150055,21.302605 161.423935,21.953884 163.698425,21.955893 
	C226.132126,22.011032 288.565887,22.004747 350.999664,21.976318 
	C352.799683,21.975498 354.599548,21.623127 356.723816,21.167873 
	C367.945953,26.353954 378.843781,31.806831 389.694824,37.894657 
	C385.999329,38.686314 382.350708,38.979191 378.701996,38.979763 
	C293.089203,38.993240 207.476410,38.975140 121.863625,38.962849 
	C133.286316,32.977146 144.709000,26.991438 156.503784,20.979822 
z"/>
<path fill="#C331F7" opacity="1.000000" stroke="none" 
	d="
M41.234909,118.340378 
	C43.367748,118.839432 45.359600,119.925812 47.352070,119.926949 
	C187.569214,120.006577 327.786377,120.001328 468.003571,119.976181 
	C469.470490,119.975922 470.937317,119.619789 472.727966,119.161667 
	C474.702545,121.672646 476.353363,124.451767 477.666718,127.760674 
	C475.698212,128.526718 474.067169,128.969650 472.436066,128.969864 
	C326.584595,128.988861 180.733139,128.973816 34.881687,128.961090 
	C36.545250,126.182587 38.208813,123.404076 40.205837,120.126266 
	C40.720284,119.333138 40.901272,119.039330 41.082260,118.745522 
	C41.082264,118.745522 41.094204,118.421204 41.234909,118.340378 
z"/>
<path fill="#CD28F9" opacity="1.000000" stroke="none" 
	d="
M56.569679,97.090775 
	C168.554871,97.306984 280.227570,97.716637 391.900665,97.944878 
	C413.341644,97.988701 434.784088,97.319649 456.672119,96.969955 
	C459.337250,99.724968 461.556152,102.489502 463.909210,105.570038 
	C462.142609,106.257416 460.241974,106.953186 458.341064,106.953911 
	C324.763367,107.004784 191.185654,107.004570 57.607948,106.963287 
	C55.312672,106.962578 53.017567,106.409874 50.303841,106.036446 
	C52.009312,103.045792 54.133324,100.133438 56.569679,97.090775 
z"/>
<path fill="#DB1CFA" opacity="1.000000" stroke="none" 
	d="
M435.918274,73.581192 
	C434.142822,74.258842 432.241333,74.952850 430.339508,74.953705 
	C314.726318,75.005249 199.113098,75.002258 83.499878,74.976219 
	C81.865883,74.975853 80.231964,74.619751 78.274780,74.161224 
	C81.075058,70.646080 84.198563,67.399391 87.951782,64.283745 
	C90.214294,64.609833 91.847031,64.975212 93.479874,64.975609 
	C202.440323,65.002487 311.400787,65.005699 420.361206,64.952774 
	C422.260345,64.951851 424.159180,64.244186 426.058136,63.866302 
	C429.302795,67.002228 432.547455,70.138161 435.918274,73.581192 
z"/>
<path fill="#E217FB" opacity="1.000000" stroke="none" 
	d="
M95.003311,58.167198 
	C98.751350,55.186626 102.499382,52.206051 107.000305,49.101585 
	C110.713943,49.318039 113.674530,49.954193 116.635475,49.955837 
	C210.648117,50.008034 304.660767,50.012550 398.673340,49.910465 
	C400.797668,49.908161 402.920593,48.590969 405.044159,47.887123 
	C409.947906,51.348495 414.851624,54.809868 419.578979,58.850685 
	C417.602020,59.619911 415.801880,59.969517 414.000854,59.974438 
	C398.175842,60.017681 382.350677,59.999535 366.525543,59.999535 
	C278.238007,59.999527 189.950439,60.012878 101.662994,59.922821 
	C99.442505,59.920555 97.223183,58.777962 95.003311,58.167198 
z"/>
<path fill="#E414FC" opacity="1.000000" stroke="none" 
	d="
M404.908478,47.568859 
	C402.920593,48.590969 400.797668,49.908161 398.673340,49.910465 
	C304.660767,50.012550 210.648117,50.008034 116.635475,49.955837 
	C113.674530,49.954193 110.713943,49.318039 107.312073,48.964493 
	C111.656982,45.713619 116.443001,42.475952 121.546326,39.100563 
	C207.476410,38.975140 293.089203,38.993240 378.701996,38.979763 
	C382.350708,38.979191 385.999329,38.686314 389.848450,38.211449 
	C390.048859,37.893288 390.534637,38.001785 390.928070,38.250481 
	C391.561890,38.704304 391.831848,38.857182 392.131378,38.957817 
	C396.345184,41.722076 400.558990,44.486336 404.908478,47.568859 
z"/>
<path fill="#C133F7" opacity="1.000000" stroke="none" 
	d="
M34.579166,129.102386 
	C180.733139,128.973816 326.584595,128.988861 472.436066,128.969864 
	C474.067169,128.969650 475.698212,128.526718 477.719421,128.121979 
	C479.336761,129.741196 480.563995,131.528900 481.412964,133.740295 
	C478.903931,134.442612 476.773132,134.964584 474.642242,134.965134 
	C328.980347,135.003464 183.318481,135.004181 37.656605,134.953644 
	C35.754539,134.952988 33.852718,134.255768 31.950785,133.883667 
	C32.726074,132.337006 33.501358,130.790329 34.579166,129.102386 
z"/>
<path fill="#BF35F7" opacity="1.000000" stroke="none" 
	d="
M31.630833,134.040024 
	C33.852718,134.255768 35.754539,134.952988 37.656605,134.953644 
	C183.318481,135.004181 328.980347,135.003464 474.642242,134.965134 
	C476.773132,134.964584 478.903931,134.442612 481.434082,134.082123 
	C482.892151,135.751587 483.950897,137.502884 485.062744,139.606110 
	C333.355713,139.964935 181.595566,139.971832 29.359394,139.968414 
	C29.692537,138.037521 30.501709,136.116959 31.630833,134.040024 
z"/>
<path fill="#AE44F5" opacity="1.000000" stroke="none" 
	d="
M498.111877,170.954742 
	C499.732941,175.373581 501.354034,179.792404 502.445526,184.605225 
	C454.599884,184.999710 407.283783,185.000198 359.753357,184.697479 
	C358.398956,180.262604 357.258942,176.130936 356.580139,171.999542 
	C401.626343,171.999893 446.211426,172.016373 490.796356,171.955414 
	C493.235291,171.952087 495.673401,171.303162 498.111877,170.954742 
z"/>
<path fill="#A54CF4" opacity="1.000000" stroke="none" 
	d="
M504.833740,192.999680 
	C505.893890,197.371323 506.954041,201.742950 507.590698,206.547760 
	C471.765869,206.987595 436.364532,206.994263 400.881195,206.615112 
	C399.668610,204.247437 398.633972,200.620895 397.391876,200.548386 
	C388.789673,200.046219 380.144287,200.283707 371.030457,200.283707 
	C371.807770,203.050858 372.362579,205.025970 372.497406,207.000854 
	C370.123138,206.999237 368.168884,206.997818 366.066956,206.640320 
	C364.666565,201.855453 363.413818,197.426666 362.619629,192.998459 
	C410.330048,192.999237 457.581909,192.999466 504.833740,192.999680 
z"/>
<path fill="#B63DF6" opacity="1.000000" stroke="none" 
	d="
M346.968170,156.110107 
	C349.464966,155.406982 351.959991,154.098175 354.458832,154.090881 
	C397.424286,153.965454 440.390198,153.983551 483.355927,154.041992 
	C485.986877,154.045563 488.617065,154.646774 491.682190,154.965439 
	C493.659210,158.397079 495.201691,161.833191 496.329651,165.633789 
	C451.083069,165.998672 406.250977,165.979691 361.419037,166.057648 
	C359.220123,166.061462 357.022644,166.913086 354.564331,167.112762 
	C351.858826,163.273758 349.413513,159.691940 346.968170,156.110107 
z"/>
<path fill="#DE1AFB" opacity="1.000000" stroke="none" 
	d="
M94.669113,58.176544 
	C97.223183,58.777962 99.442505,59.920555 101.662994,59.922821 
	C189.950439,60.012878 278.238007,59.999527 366.525543,59.999535 
	C382.350677,59.999535 398.175842,60.017681 414.000854,59.974438 
	C415.801880,59.969517 417.602020,59.619911 419.726166,59.162075 
	C421.960846,60.345703 423.871887,61.797390 425.920532,63.557693 
	C424.159180,64.244186 422.260345,64.951851 420.361206,64.952774 
	C311.400787,65.005699 202.440323,65.002487 93.479874,64.975609 
	C91.847031,64.975212 90.214294,64.609833 88.258484,64.143738 
	C90.068619,61.977085 92.201767,60.081490 94.669113,58.176544 
z"/>
<path fill="#9E51F3" opacity="1.000000" stroke="none" 
	d="
M400.963165,207.000931 
	C436.364532,206.994263 471.765869,206.987595 507.643524,206.971649 
	C509.064697,211.035553 510.009583,215.108749 510.894196,219.590866 
	C474.441040,219.983948 438.048187,219.968109 401.185852,219.473907 
	C400.798615,214.997345 400.880890,210.999146 400.963165,207.000931 
z"/>
<path fill="#AA47F4" opacity="1.000000" stroke="none" 
	d="
M504.905151,192.606079 
	C457.581909,192.999466 410.330048,192.999237 362.466370,192.654327 
	C361.225586,189.873322 360.596649,187.436996 359.967712,185.000687 
	C407.283783,185.000198 454.599884,184.999710 502.373840,184.999008 
	C503.546661,187.403351 504.261597,189.807922 504.905151,192.606079 
z"/>
<path fill="#B341F5" opacity="1.000000" stroke="none" 
	d="
M354.824493,167.369934 
	C357.022644,166.913086 359.220123,166.061462 361.419037,166.057648 
	C406.250977,165.979691 451.083069,165.998672 496.372986,165.997711 
	C497.224670,167.400925 497.618561,168.804749 498.062134,170.581650 
	C495.673401,171.303162 493.235291,171.952087 490.796356,171.955414 
	C446.211426,172.016373 401.626343,171.999893 356.426941,171.686676 
	C355.483185,170.038986 355.153839,168.704453 354.824493,167.369934 
z"/>
<path fill="#EB0EFC" opacity="1.000000" stroke="none" 
	d="
M392.042236,38.699333 
	C391.831848,38.857182 391.561890,38.704304 391.165588,38.324867 
	C391.324127,38.247322 391.638641,38.344082 392.042236,38.699333 
z"/>
<path fill="#6187EB" opacity="1.000000" stroke="none" 
	d="
M27.889559,372.046539 
	C25.254652,366.299133 22.619747,360.551758 20.410015,354.412598 
	C56.497093,354.014282 92.159035,354.026093 127.820808,353.954315 
	C129.891937,353.950104 131.961700,353.268158 134.311981,353.090088 
	C144.153336,363.485870 157.032288,364.070038 169.081757,355.220764 
	C170.707367,356.069336 172.200302,356.939209 173.693954,356.940430 
	C231.183411,356.987732 288.672943,356.955505 346.536407,356.949463 
	C355.764832,362.423828 369.315796,361.593719 378.239990,355.376587 
	C380.665436,356.128998 382.863739,356.938538 385.064056,356.944153 
	C421.086792,357.036102 457.109833,357.026581 493.132751,357.039886 
	C491.141693,361.471039 489.150604,365.902191 486.539307,370.666504 
	C336.016937,370.999786 186.114822,370.994263 36.212708,371.043610 
	C33.438217,371.044525 30.663939,371.697693 27.889559,372.046539 
z"/>
<path fill="#6C7DEC" opacity="1.000000" stroke="none" 
	d="
M15.895623,344.044586 
	C14.594898,340.327209 13.294175,336.609863 12.293251,332.232971 
	C14.393287,331.382355 16.193386,331.025909 17.993776,331.024445 
	C57.090553,330.992493 96.187729,331.099030 135.283997,330.954681 
	C152.576874,330.890808 169.866898,330.256042 187.160172,330.029053 
	C198.419266,329.881226 209.681870,330.001190 220.942902,330.001190 
	C254.193436,330.001221 287.444336,329.913300 320.694336,330.046967 
	C332.989746,330.096405 345.281311,330.805359 357.577850,330.962341 
	C370.685059,331.129730 383.796082,331.000000 396.905426,331.000000 
	C429.889496,331.000031 462.873627,330.979767 495.857574,331.048492 
	C497.924103,331.052795 499.989227,331.753052 502.054993,332.129517 
	C501.010254,335.512939 499.965515,338.896393 498.380157,342.201019 
	C495.608063,341.748505 493.377197,341.053436 491.145050,341.049225 
	C455.079437,340.981323 419.013641,341.001190 382.864655,340.568390 
	C382.682068,338.208832 382.582764,336.282074 382.480316,334.294281 
	C368.370728,334.294281 354.751678,334.294281 340.941376,334.294281 
	C340.780884,337.770660 340.637024,340.886383 340.056305,344.001648 
	C284.212738,344.001251 228.806046,344.001373 173.327148,343.546661 
	C173.254974,340.177917 173.254974,337.264038 173.254974,334.296814 
	C158.815704,334.296814 145.180237,334.296814 130.935089,334.296814 
	C130.935089,337.772491 130.935089,340.886444 130.470490,344.000153 
	C91.969147,344.014832 53.932384,344.029694 15.895623,344.044586 
z"/>
<path fill="#5C8BEA" opacity="1.000000" stroke="none" 
	d="
M27.943371,372.410858 
	C30.663939,371.697693 33.438217,371.044525 36.212708,371.043610 
	C186.114822,370.994263 336.016937,370.999786 486.377106,370.999268 
	C484.938171,374.451935 483.041199,377.904968 480.530701,381.679016 
	C331.000275,381.999847 182.083359,381.999664 33.166454,381.999481 
	C31.443367,378.924713 29.720274,375.849945 27.943371,372.410858 
z"/>
<path fill="#45A0E7" opacity="1.000000" stroke="none" 
	d="
M79.884491,442.042511 
	C75.641930,437.913971 71.399368,433.785431 67.495529,429.338562 
	C194.262756,429.025757 320.691284,429.031250 447.119812,429.036743 
	C442.988617,433.285492 438.857391,437.534241 433.974915,441.902466 
	C417.444641,441.681274 401.665924,441.064209 385.886505,441.046112 
	C300.996094,440.948639 216.105408,440.943634 131.214996,441.047180 
	C114.104446,441.068054 96.994637,441.695007 79.884491,442.042511 
z"/>
<path fill="#3FA5E6" opacity="1.000000" stroke="none" 
	d="
M80.021912,442.351257 
	C96.994637,441.695007 114.104446,441.068054 131.214996,441.047180 
	C216.105408,440.943634 300.996094,440.948639 385.886505,441.046112 
	C401.665924,441.064209 417.444641,441.681274 433.669861,442.032288 
	C429.968384,445.971771 425.820740,449.900909 421.037659,453.700134 
	C418.768311,453.380188 417.134460,453.024139 415.500519,453.023743 
	C309.886475,452.997467 204.272461,452.994232 98.658455,453.046356 
	C96.756836,453.047302 94.855553,453.741852 92.954117,454.112762 
	C88.689186,450.295166 84.424263,446.477570 80.021912,442.351257 
z"/>
<path fill="#4A9BE8" opacity="1.000000" stroke="none" 
	d="
M62.885475,424.041779 
	C60.328720,421.267792 57.771969,418.493774 55.406151,415.143921 
	C57.231171,414.378754 58.865219,414.023956 60.499336,414.023651 
	C191.261520,413.998047 322.023712,413.995300 452.785858,414.043579 
	C454.894867,414.044373 457.003601,414.695435 459.112457,415.043091 
	C456.651611,417.954773 454.190765,420.866455 450.946686,423.899780 
	C321.070801,424.028229 191.978134,424.035004 62.885475,424.041779 
z"/>
<path fill="#31B0E5" opacity="1.000000" stroke="none" 
	d="
M349.431519,496.062408 
	C347.319916,495.406036 345.591766,494.091797 343.861206,494.088562 
	C286.644714,493.981689 229.427994,493.982666 172.211441,494.066803 
	C169.976105,494.070068 167.742203,495.046051 165.227081,495.836517 
	C154.481430,491.413513 144.010757,486.735077 133.557541,482.018005 
	C132.088272,481.354980 130.704208,480.503143 129.254456,479.047546 
	C131.229248,477.904236 133.229935,477.058380 135.231323,477.056763 
	C216.558807,476.990326 297.886383,476.990204 379.213898,477.043945 
	C381.838715,477.045685 384.463043,477.697296 387.087616,478.045929 
	C374.663025,484.035889 362.238403,490.025848 349.431519,496.062408 
z"/>
<path fill="#4F97E9" opacity="1.000000" stroke="none" 
	d="
M459.418335,414.888062 
	C457.003601,414.695435 454.894867,414.044373 452.785858,414.043579 
	C322.023712,413.995300 191.261520,413.998047 60.499336,414.023651 
	C58.865219,414.023956 57.231171,414.378754 55.272919,414.835632 
	C53.043793,412.650543 51.138832,410.197876 49.228683,407.058624 
	C50.887871,405.914764 52.552109,405.057739 54.216648,405.057159 
	C191.517548,405.008392 328.818481,405.026215 466.119385,405.039185 
	C463.987671,408.270477 461.855957,411.501770 459.418335,414.888062 
z"/>
<path fill="#588FEA" opacity="1.000000" stroke="none" 
	d="
M33.198650,382.346497 
	C182.083359,381.999664 331.000275,381.999847 480.375092,381.999756 
	C479.465057,384.575500 478.097137,387.151489 475.946350,389.874634 
	C329.403839,390.028687 183.644165,390.035583 37.884510,390.042480 
	C36.333290,387.592834 34.782070,385.143158 33.198650,382.346497 
z"/>
<path fill="#5393E9" opacity="1.000000" stroke="none" 
	d="
M466.431183,404.901672 
	C328.818481,405.026215 191.517548,405.008392 54.216648,405.057159 
	C52.552109,405.057739 50.887871,405.914764 49.086761,406.752808 
	C46.708466,403.983704 44.466896,400.833771 42.653595,397.341888 
	C185.999054,396.999786 328.916260,396.999634 471.833435,396.999451 
	C470.136597,399.587677 468.439789,402.175934 466.431183,404.901672 
z"/>
<path fill="#5591E9" opacity="1.000000" stroke="none" 
	d="
M471.984039,396.684387 
	C328.916260,396.999634 185.999054,396.999786 42.623863,396.999695 
	C40.775253,394.914490 39.384651,392.829498 37.939278,390.393494 
	C183.644165,390.035583 329.403839,390.028687 475.639496,390.032043 
	C474.788544,392.151337 473.461578,394.260345 471.984039,396.684387 
z"/>
<path fill="#34AEE5" opacity="1.000000" stroke="none" 
	d="
M387.412384,477.910492 
	C384.463043,477.697296 381.838715,477.045685 379.213898,477.043945 
	C297.886383,476.990204 216.558807,476.990326 135.231323,477.056763 
	C133.229935,477.058380 131.229248,477.904236 129.092468,478.736206 
	C123.365929,475.639526 117.775154,472.162964 112.429184,468.198486 
	C114.471420,467.473846 116.268768,467.030670 118.066277,467.029999 
	C210.639740,466.996368 303.213196,466.993530 395.786652,467.044128 
	C397.894226,467.045288 400.001465,467.697815 402.108826,468.046509 
	C397.318268,471.289368 392.527710,474.532196 387.412384,477.910492 
z"/>
<path fill="#3BA8E6" opacity="1.000000" stroke="none" 
	d="
M93.091766,454.427002 
	C94.855553,453.741852 96.756836,453.047302 98.658455,453.046356 
	C204.272461,452.994232 309.886475,452.997467 415.500519,453.023743 
	C417.134460,453.024139 418.768311,453.380188 420.725525,453.838806 
	C417.943390,456.663208 414.837952,459.219086 410.993408,461.877747 
	C407.794342,461.653809 405.334534,461.042664 402.874359,461.041443 
	C305.858002,460.993195 208.841614,460.985931 111.825333,461.088715 
	C109.534348,461.091125 107.244743,462.408844 104.954491,463.113037 
	C101.046135,460.322449 97.137779,457.531860 93.091766,454.427002 
z"/>
<path fill="#717BED" opacity="1.000000" stroke="none" 
	d="
M502.395813,331.943634 
	C499.989227,331.753052 497.924103,331.052795 495.857574,331.048492 
	C462.873627,330.979767 429.889496,331.000031 396.905426,331.000000 
	C383.796082,331.000000 370.685059,331.129730 357.577850,330.962341 
	C345.281311,330.805359 332.989746,330.096405 320.694336,330.046967 
	C287.444336,329.913300 254.193436,330.001221 220.942902,330.001190 
	C209.681870,330.001190 198.419266,329.881226 187.160172,330.029053 
	C169.866898,330.256042 152.576874,330.890808 135.283997,330.954681 
	C96.187729,331.099030 57.090553,330.992493 17.993776,331.024445 
	C16.193386,331.025909 14.393287,331.382355 12.269459,331.842285 
	C11.293221,330.013947 10.640576,327.916779 10.331460,325.263672 
	C12.965752,324.471802 15.256270,324.033112 17.547316,324.030334 
	C53.245983,323.987122 88.944717,324.000305 124.812500,324.364685 
	C127.000412,325.485840 129.014771,326.886871 131.038803,326.900970 
	C153.488541,327.057678 175.939789,327.004700 198.390610,326.985992 
	C199.667496,326.984924 200.944229,326.789215 202.409592,326.668579 
	C202.604263,324.245361 202.774780,322.122833 203.362030,320.000183 
	C205.438522,320.000244 207.098282,320.000427 208.827347,320.446045 
	C208.896652,322.816772 208.896652,324.742096 208.896652,326.734192 
	C241.261505,326.734192 272.889130,326.734192 304.948395,326.734192 
	C304.948395,323.729462 304.926880,321.101227 304.954224,318.473480 
	C304.983612,315.651154 305.058868,312.829346 305.512024,310.004913 
	C307.732605,310.015808 309.555206,310.029114 311.489288,310.493988 
	C311.600739,316.182739 311.600739,321.419891 311.600739,326.348694 
	C312.901947,326.733704 313.212830,326.905884 313.523987,326.906372 
	C337.325348,326.944611 361.127258,327.035065 384.927032,326.852478 
	C386.573303,326.839844 388.203888,324.786011 390.154053,323.980713 
	C392.582581,324.520020 394.698517,324.965881 396.815216,324.969330 
	C432.584656,325.027191 468.354218,325.029968 504.123749,325.044983 
	C503.661377,327.282562 503.199005,329.520172 502.395813,331.943634 
z"/>
<path fill="#479DE8" opacity="1.000000" stroke="none" 
	d="
M62.939270,424.376953 
	C191.978134,424.035004 321.070801,424.028229 450.639465,424.031738 
	C449.988739,425.601440 448.861969,427.160889 447.427490,428.878540 
	C320.691284,429.031250 194.262756,429.025757 67.358047,429.029846 
	C65.585587,427.596985 64.289330,426.154572 62.939270,424.376953 
z"/>
<path fill="#6881EC" opacity="1.000000" stroke="none" 
	d="
M382.947906,341.001160 
	C419.013641,341.001190 455.079437,340.981323 491.145050,341.049225 
	C493.377197,341.053436 495.608063,341.748505 498.120605,342.496033 
	C496.860565,347.472534 495.319427,352.075134 493.455536,356.858795 
	C457.109833,357.026581 421.086792,357.036102 385.064056,356.944153 
	C382.863739,356.938538 380.665436,356.128998 378.377136,355.053528 
	C379.841370,349.942719 381.394623,345.471954 382.947906,341.001160 
z"/>
<path fill="#38ABE6" opacity="1.000000" stroke="none" 
	d="
M105.089096,463.422791 
	C107.244743,462.408844 109.534348,461.091125 111.825333,461.088715 
	C208.841614,460.985931 305.858002,460.993195 402.874359,461.041443 
	C405.334534,461.042664 407.794342,461.653809 410.682373,462.010620 
	C408.345123,464.024017 405.579834,466.007294 402.461731,468.018555 
	C400.001465,467.697815 397.894226,467.045288 395.786652,467.044128 
	C303.213196,466.993530 210.639740,466.996368 118.066277,467.029999 
	C116.268768,467.030670 114.471420,467.473846 112.284470,467.879944 
	C109.671196,466.610382 107.447449,465.171478 105.089096,463.422791 
z"/>
<path fill="#7C71EE" opacity="1.000000" stroke="none" 
	d="
M389.946381,294.000916 
	C427.567200,294.000671 465.188019,293.996948 502.808838,294.008545 
	C505.136871,294.009247 507.464844,294.130005 510.312927,294.275513 
	C510.157379,298.778015 509.481781,303.199860 508.070129,307.667450 
	C505.035126,307.475464 502.736481,307.033295 500.437286,307.030548 
	C463.607208,306.986847 426.777069,306.999207 389.863800,306.541687 
	C389.835876,302.056732 389.891144,298.028809 389.946381,294.000916 
z"/>
<path fill="#7476ED" opacity="1.000000" stroke="none" 
	d="
M504.457855,324.848450 
	C468.354218,325.029968 432.584656,325.027191 396.815216,324.969330 
	C394.698517,324.965881 392.582581,324.520020 390.107544,323.556030 
	C389.815704,320.221344 389.882568,317.610657 390.421295,315.000000 
	C429.539459,314.999969 468.185760,314.999969 506.832092,314.999969 
	C506.152069,318.217316 505.472015,321.434631 504.457855,324.848450 
z"/>
<path fill="#7773EE" opacity="1.000000" stroke="none" 
	d="
M506.913574,314.607941 
	C468.185760,314.999969 429.539459,314.999969 390.338623,314.561584 
	C389.838409,311.748383 389.892670,309.373596 389.946960,306.998779 
	C426.777069,306.999207 463.607208,306.986847 500.437286,307.030548 
	C502.736481,307.033295 505.035126,307.475464 507.724396,307.882477 
	C507.741516,310.106506 507.368317,312.161224 506.913574,314.607941 
z"/>
<path fill="#7476ED" opacity="1.000000" stroke="none" 
	d="
M124.643440,324.000488 
	C88.944717,324.000305 53.245983,323.987122 17.547316,324.030334 
	C15.256270,324.033112 12.965752,324.471802 10.285246,324.876282 
	C8.938847,321.628845 7.982190,318.212830 7.554069,314.398254 
	C46.903606,313.999756 85.724609,313.999847 124.634781,314.446655 
	C124.697121,317.929077 124.670280,320.964783 124.643440,324.000488 
z"/>
<path fill="#6881EC" opacity="1.000000" stroke="none" 
	d="
M15.940430,344.427612 
	C53.932384,344.029694 91.969147,344.014832 130.582397,344.355774 
	C132.116638,347.441620 133.074371,350.171600 134.032104,352.901611 
	C131.961700,353.268158 129.891937,353.950104 127.820808,353.954315 
	C92.159035,354.026093 56.497093,354.014282 20.359137,354.030396 
	C18.583803,350.963501 17.284519,347.887054 15.940430,344.427612 
z"/>
<path fill="#806CEF" opacity="1.000000" stroke="none" 
	d="
M2.934518,289.465942 
	C5.677191,288.694611 8.468298,288.050049 11.260582,288.044922 
	C48.757118,287.975983 86.253822,287.996216 124.251862,288.439514 
	C124.685120,291.589355 124.617004,294.294006 124.108513,296.998657 
	C83.741074,297.012909 43.814003,297.027100 3.886937,297.041321 
	C3.585791,294.657532 3.284645,292.273743 2.934518,289.465942 
z"/>
<path fill="#7773EE" opacity="1.000000" stroke="none" 
	d="
M124.545609,313.999969 
	C85.724609,313.999847 46.903606,313.999756 7.624646,313.999237 
	C6.452643,311.265228 5.738595,308.531677 5.553686,305.399170 
	C45.571136,305.000671 85.059448,305.001099 124.635803,305.444519 
	C124.664436,308.591705 124.605026,311.295837 124.545609,313.999969 
z"/>
<path fill="#7C71EE" opacity="1.000000" stroke="none" 
	d="
M124.547760,305.001495 
	C85.059448,305.001099 45.571136,305.000671 5.624894,305.000488 
	C4.772862,302.623840 4.378760,300.246948 3.935798,297.455688 
	C43.814003,297.027100 83.741074,297.012909 124.197876,297.436249 
	C124.667656,300.249695 124.607704,302.625580 124.547760,305.001495 
z"/>
<path fill="#B341F5" opacity="1.000000" stroke="none" 
	d="
M14.167618,173.997818 
	C15.723892,169.891327 17.280167,165.784836 19.459385,161.339447 
	C64.499527,161.000626 108.916817,160.968460 153.333710,161.088272 
	C155.760361,161.094818 158.183609,162.368790 160.500259,163.371536 
	C158.963882,167.470612 157.535675,171.250931 155.632141,175.023361 
	C110.944550,175.010117 66.732254,175.022812 22.520079,174.956528 
	C19.735453,174.952347 16.951750,174.331680 14.167618,173.997818 
z"/>
<path fill="#9E51F3" opacity="1.000000" stroke="none" 
	d="
M113.879814,222.001312 
	C109.586563,222.334015 105.294006,222.944366 100.999947,222.955139 
	C68.694542,223.036209 36.388844,222.999252 3.625309,222.998871 
	C4.042877,217.239853 4.918373,211.481155 6.438048,205.361725 
	C42.437561,205.002274 77.792892,205.003510 113.232040,205.464020 
	C113.503845,211.282639 113.691826,216.641968 113.879814,222.001312 
z"/>
<path fill="#AA47F4" opacity="1.000000" stroke="none" 
	d="
M8.166849,193.998169 
	C9.200161,190.092484 10.233472,186.186783 11.931858,182.356140 
	C14.730020,182.620789 16.862862,182.972885 18.996227,182.976074 
	C64.124245,183.043701 109.252335,183.072006 154.323242,183.497696 
	C153.220917,187.260254 152.175766,190.633118 150.653778,194.004486 
	C102.840233,194.001404 55.503540,193.999786 8.166849,193.998169 
z"/>
<path fill="#A54CF4" opacity="1.000000" stroke="none" 
	d="
M8.093215,194.399689 
	C55.503540,193.999786 102.840233,194.001404 150.641373,194.396301 
	C149.642014,199.856766 148.178207,204.923935 146.324402,209.992371 
	C144.153015,209.609833 142.371613,209.226044 140.649292,208.449890 
	C141.243240,205.529602 141.778122,203.001678 142.399475,200.065048 
	C134.047226,200.065048 126.125488,200.104172 118.204445,200.046829 
	C114.779228,200.022034 113.645615,202.142212 113.148224,205.004745 
	C77.792892,205.003510 42.437561,205.002274 6.624220,205.001038 
	C6.784001,201.601120 7.401791,198.201157 8.093215,194.399689 
z"/>
<path fill="#AE44F5" opacity="1.000000" stroke="none" 
	d="
M154.380402,183.108002 
	C109.252335,183.072006 64.124245,183.043701 18.996227,182.976074 
	C16.862862,182.972885 14.730020,182.620789 12.273015,182.163330 
	C12.636039,179.513672 13.322981,177.131836 14.088770,174.373917 
	C16.951750,174.331680 19.735453,174.952347 22.520079,174.956528 
	C66.732254,175.022812 110.944550,175.010117 155.610886,175.416718 
	C155.503433,178.247986 154.941925,180.677994 154.380402,183.108002 
z"/>
<path fill="#B63DF6" opacity="1.000000" stroke="none" 
	d="
M160.608429,163.052780 
	C158.183609,162.368790 155.760361,161.094818 153.333710,161.088272 
	C108.916817,160.968460 64.499527,161.000626 19.624310,161.000610 
	C20.117954,158.652069 21.069616,156.303467 22.173153,153.634979 
	C24.666698,153.876312 27.007271,154.921661 29.350195,154.926971 
	C72.673546,155.025009 115.997192,154.986465 159.320709,155.036911 
	C161.420044,155.039352 163.518707,155.593735 165.686783,156.448944 
	C164.040070,159.022141 162.324249,161.037460 160.608429,163.052780 
z"/>
<path fill="#C92CF8" opacity="1.000000" stroke="none" 
	d="
M40.818310,118.870758 
	C40.901272,119.039330 40.720284,119.333138 40.350182,119.801811 
	C40.292164,119.649780 40.423260,119.322891 40.818310,118.870758 
z"/>
<path fill="#FEFEFE" opacity="1.000000" stroke="none" 
	d="
M124.635803,305.444519 
	C124.607704,302.625580 124.667656,300.249695 124.638245,297.436218 
	C124.617004,294.294006 124.685120,291.589355 124.698120,288.435883 
	C129.749161,287.729553 134.852783,287.374054 139.962158,287.242584 
	C144.955872,287.114075 149.955475,287.222870 154.952469,287.212097 
	C164.730453,287.191071 167.042618,284.438446 165.284348,273.970886 
	C163.650253,270.407593 162.226578,267.557159 160.802902,264.706757 
	C156.045761,258.832611 149.992981,255.254395 142.374329,254.904770 
	C136.607803,254.640137 130.822144,254.792450 124.586029,254.734711 
	C124.069885,252.751724 124.012703,250.793243 123.892899,248.416016 
	C124.286804,242.872177 127.158676,240.992386 132.192123,241.052429 
	C146.323700,241.221024 160.459320,241.186539 174.591644,241.052689 
	C177.689148,241.023361 179.506622,241.737518 180.279800,245.030716 
	C181.034073,248.243332 182.427109,251.305984 183.763245,255.103821 
	C184.774017,258.134644 185.492996,260.521576 186.363037,262.852112 
	C188.058456,267.393494 191.411026,269.872681 196.232910,269.878540 
	C236.642502,269.927704 277.052185,269.923157 317.461792,269.887726 
	C322.259064,269.883514 325.745514,267.623047 327.431030,263.031830 
	C328.398438,260.396698 329.129181,257.674713 329.966492,254.991821 
	C330.131805,254.705399 330.346039,254.436447 330.455414,254.130035 
	C335.103577,241.111115 335.102386,241.110641 348.963776,241.110703 
	C359.884003,241.110748 370.805634,241.019913 381.723267,241.187851 
	C383.905548,241.221436 386.072601,242.242508 388.579865,243.007172 
	C388.942474,244.034210 388.972015,244.862320 389.001343,245.690430 
	C389.323730,254.788757 389.323669,254.776398 379.868011,254.796158 
	C376.885864,254.802383 373.903900,254.894150 370.461517,255.041061 
	C360.340454,256.229797 353.860260,261.525818 349.999451,270.639221 
	C349.365753,273.540253 348.339325,276.055481 348.174072,278.626007 
	C347.830719,283.967560 350.782715,287.093994 356.171875,287.158051 
	C366.792389,287.284363 377.415497,287.192322 388.502655,287.151459 
	C389.240356,289.147064 389.512970,291.181824 389.865967,293.608765 
	C389.891144,298.028809 389.835876,302.056732 389.863800,306.541687 
	C389.892670,309.373596 389.838409,311.748383 389.866791,314.561584 
	C389.882568,317.610657 389.815704,320.221344 389.795288,323.256714 
	C388.203888,324.786011 386.573303,326.839844 384.927032,326.852478 
	C361.127258,327.035065 337.325348,326.944611 313.523987,326.906372 
	C313.212830,326.905884 312.901947,326.733704 311.600739,326.348694 
	C311.600739,321.419891 311.600739,316.182739 311.613098,310.037689 
	C311.663544,305.477081 311.762482,301.823761 311.727386,298.171722 
	C311.648773,289.986267 308.756073,287.116577 300.536499,287.106445 
	C281.103271,287.082550 261.669983,287.097534 242.236725,287.097961 
	C232.270950,287.098175 222.304581,287.034119 212.339630,287.126160 
	C205.803635,287.186493 202.896667,290.105682 202.726807,296.531647 
	C202.678726,298.349823 202.855789,300.173950 202.854080,302.458679 
	C202.834137,308.614777 202.889709,314.307556 202.945282,320.000305 
	C202.774780,322.122833 202.604263,324.245361 202.409592,326.668579 
	C200.944229,326.789215 199.667496,326.984924 198.390610,326.985992 
	C175.939789,327.004700 153.488541,327.057678 131.038803,326.900970 
	C129.014771,326.886871 127.000412,325.485840 124.812500,324.364685 
	C124.670280,320.964783 124.697121,317.929077 124.634781,314.446655 
	C124.605026,311.295837 124.664436,308.591705 124.635803,305.444519 
z"/>
<path fill="#FEFEFE" opacity="1.000000" stroke="none" 
	d="
M355.782654,228.379654 
	C356.101898,230.312363 356.421173,232.245056 356.800446,234.540955 
	C290.259521,234.540955 223.893433,234.540955 157.034576,234.540955 
	C157.764374,231.540756 158.456802,228.694168 159.390945,225.169266 
	C161.517181,217.684631 163.401718,210.878326 165.501190,203.770020 
	C167.794357,195.979828 169.872589,188.491653 172.139862,180.681870 
	C172.622604,179.410172 172.898346,178.454086 173.212769,177.510910 
	C176.113754,168.809158 173.708344,170.104370 183.134842,170.094330 
	C230.875809,170.043488 278.616852,170.070938 326.357880,170.070938 
	C338.087311,170.070938 338.085449,170.071548 341.723785,180.826233 
	C341.987885,181.606812 342.307098,182.368759 342.658966,183.540405 
	C345.114075,191.969101 347.510925,199.996750 349.914459,208.425507 
	C351.874969,215.344284 353.828796,221.861969 355.782654,228.379654 
z"/>
<path fill="#FCF9FE" opacity="1.000000" stroke="none" 
	d="
M160.500244,163.371536 
	C162.324249,161.037460 164.040070,159.022141 165.973511,156.785187 
	C170.182434,155.625504 174.170929,153.884705 178.165436,153.870850 
	C230.636002,153.688660 283.107544,153.708069 335.578400,153.844177 
	C339.124786,153.853378 342.667664,155.202713 346.590179,156.019440 
	C349.413513,159.691940 351.858826,163.273758 354.564331,167.112762 
	C355.153839,168.704453 355.483185,170.038986 355.965729,171.686386 
	C357.258942,176.130936 358.398956,180.262604 359.753357,184.697479 
	C360.596649,187.436996 361.225586,189.873322 362.007812,192.653763 
	C363.413818,197.426666 364.666565,201.855453 366.081024,207.011993 
	C367.215668,210.825348 368.188568,213.910934 369.161438,216.996506 
	C370.708496,222.717117 372.255554,228.437729 373.799957,234.537064 
	C373.307526,234.910706 372.817688,234.901474 372.327881,234.901138 
	C364.145172,234.895615 364.145172,234.895874 361.258667,226.913025 
	C359.243652,219.743118 357.388092,213.290894 355.445496,206.445343 
	C353.114594,198.335464 350.870758,190.618927 348.544830,182.508438 
	C347.702209,179.625671 346.677185,177.183502 346.228668,174.639694 
	C344.606781,165.440582 342.715332,163.729370 333.494812,163.728882 
	C284.387054,163.726303 235.279190,163.679977 186.171539,163.754791 
	C170.043961,163.779358 170.513321,160.928940 165.581238,181.239807 
	C163.268600,189.014435 161.181564,196.507996 158.915558,204.328857 
	C156.844055,211.437317 154.951508,218.218475 153.058929,224.999634 
	C152.568512,226.386337 152.018234,227.755188 151.597946,229.162842 
	C149.707153,235.495667 146.812683,236.673706 140.009552,233.397675 
	C141.193878,228.909409 142.471985,224.820282 143.906616,220.013901 
	C144.946869,216.194794 145.830627,213.092957 146.714386,209.991104 
	C148.178207,204.923935 149.642014,199.856766 151.118225,194.397797 
	C152.175766,190.633118 153.220917,187.260254 154.323242,183.497696 
	C154.941925,180.677994 155.503433,178.247986 156.086212,175.424622 
	C157.535675,171.250931 158.963882,167.470612 160.500244,163.371536 
z"/>
<path fill="#FEFEFE" opacity="1.000000" stroke="none" 
	d="
M189.926758,253.991333 
	C188.681854,249.897858 187.436951,245.804382 186.086182,241.362793 
	C233.448486,241.362793 280.373077,241.362793 327.815552,241.362793 
	C326.518585,245.459091 325.286377,249.350861 323.810913,253.900299 
	C319.853638,263.760559 322.753540,263.174622 310.987885,263.175568 
	C275.405396,263.178406 239.820511,262.958221 204.242386,263.351562 
	C196.668869,263.435242 191.320755,262.315918 189.926758,253.991333 
z"/>
<path fill="#926DF1" opacity="1.000000" stroke="none" 
	d="
M189.548553,254.012421 
	C191.320755,262.315918 196.668869,263.435242 204.242386,263.351562 
	C239.820511,262.958221 275.405396,263.178406 310.987885,263.175568 
	C322.753540,263.174622 319.853638,263.760559 323.789307,254.278473 
	C325.747803,254.289993 327.484680,254.581009 329.594055,254.931915 
	C329.129181,257.674713 328.398438,260.396698 327.431030,263.031830 
	C325.745514,267.623047 322.259064,269.883514 317.461792,269.887726 
	C277.052185,269.923157 236.642502,269.927704 196.232910,269.878540 
	C191.411026,269.872681 188.058456,267.393494 186.363037,262.852112 
	C185.492996,260.521576 184.774017,258.134644 183.979446,255.390686 
	C185.704849,254.683289 187.437607,254.358398 189.548553,254.012421 
z"/>
<path fill="#9E51F3" opacity="1.000000" stroke="none" 
	d="
M153.494629,225.000061 
	C154.951508,218.218475 156.844055,211.437317 159.354706,204.328812 
	C161.743942,204.024994 163.515091,204.048508 165.286255,204.072021 
	C163.401718,210.878326 161.517181,217.684631 159.408356,224.769531 
	C157.432816,225.032257 155.681564,225.016357 153.494629,225.000061 
z"/>
<path fill="#9E51F3" opacity="1.000000" stroke="none" 
	d="
M355.532532,206.838684 
	C357.388092,213.290894 359.243652,219.743118 361.067413,226.597839 
	C359.468414,227.262329 357.901245,227.524338 356.058350,228.083008 
	C353.828796,221.861969 351.874969,215.344284 350.322144,208.402573 
	C352.326263,207.598587 353.929382,207.218628 355.532532,206.838684 
z"/>
<path fill="#FCF9FE" opacity="1.000000" stroke="none" 
	d="
M400.881195,206.615112 
	C400.880890,210.999146 400.798615,214.997345 400.697479,219.451843 
	C398.806824,221.271286 397.031036,223.615891 395.044983,223.810074 
	C389.518768,224.350372 383.905273,223.997650 378.009033,223.997650 
	C377.282990,221.425110 376.627350,219.101959 375.794739,216.033493 
	C374.717651,212.525818 373.817535,209.763443 372.917419,207.001083 
	C372.362579,205.025970 371.807770,203.050858 371.030457,200.283707 
	C380.144287,200.283707 388.789673,200.046219 397.391876,200.548386 
	C398.633972,200.620895 399.668610,204.247437 400.881195,206.615112 
z"/>
<path fill="#9E51F3" opacity="1.000000" stroke="none" 
	d="
M372.497406,207.000854 
	C373.817535,209.763443 374.717651,212.525818 375.664856,215.646332 
	C373.769135,216.289307 371.826324,216.574142 369.522461,216.927734 
	C368.188568,213.910934 367.215668,210.825348 366.228699,207.368088 
	C368.168884,206.997818 370.123138,206.999237 372.497406,207.000854 
z"/>
<path fill="#FEFEFE" opacity="1.000000" stroke="none" 
	d="
M124.650482,278.428192 
	C124.601204,276.203033 124.656456,274.406982 124.620758,272.243744 
	C124.562042,269.541138 124.594261,267.205688 124.571533,264.433716 
	C125.221489,263.099457 125.935249,261.415314 126.629967,261.423126 
	C135.681595,261.524994 145.105789,259.655945 153.638062,266.243164 
	C155.668427,269.141937 157.219803,271.604462 158.771179,274.066986 
	C160.124435,280.996490 160.124435,280.999176 153.258224,281.001495 
	C145.129486,281.004242 136.998306,281.101776 128.874329,280.905273 
	C127.485519,280.871643 126.127342,279.572052 124.650482,278.428192 
z"/>
<path fill="#8964F0" opacity="1.000000" stroke="none" 
	d="
M159.222412,274.050720 
	C157.219803,271.604462 155.668427,269.141937 153.955383,266.377960 
	C155.831055,265.685120 157.868378,265.293732 160.354309,264.804565 
	C162.226578,267.557159 163.650253,270.407593 165.077179,273.629822 
	C163.278168,274.012543 161.475891,274.023499 159.222412,274.050720 
z"/>
<path fill="#FCF9FE" opacity="1.000000" stroke="none" 
	d="
M113.232040,205.464020 
	C113.645615,202.142212 114.779228,200.022034 118.204445,200.046829 
	C126.125488,200.104172 134.047226,200.065048 142.399475,200.065048 
	C141.778122,203.001678 141.243240,205.529602 140.461426,208.753204 
	C139.371811,212.596649 138.529144,215.744385 137.686478,218.892136 
	C136.610657,222.805496 134.310486,224.639130 130.023651,224.070068 
	C124.834763,223.381256 119.592896,223.091568 114.126884,222.315247 
	C113.691826,216.641968 113.503845,211.282639 113.232040,205.464020 
z"/>
<path fill="#9E51F3" opacity="1.000000" stroke="none" 
	d="
M138.080200,218.928223 
	C138.529144,215.744385 139.371811,212.596649 140.402344,209.145584 
	C142.371613,209.226044 144.153015,209.609833 146.324402,209.992371 
	C145.830627,213.092957 144.946869,216.194794 143.920715,219.648285 
	C142.010193,219.654709 140.242065,219.309494 138.080200,218.928223 
z"/>
<path fill="#FCF9FE" opacity="1.000000" stroke="none" 
	d="
M389.745392,263.635681 
	C389.806305,266.044952 389.752991,268.090515 389.781647,270.568054 
	C389.808197,273.374176 389.752808,275.748352 389.778137,278.561157 
	C388.720184,279.670166 387.589783,280.905853 386.441589,280.922668 
	C376.120514,281.073914 365.796326,281.011017 354.397034,281.011017 
	C354.923737,278.004730 355.384766,275.373169 355.888184,272.368774 
	C359.817474,265.020599 365.812164,261.502319 373.736359,261.287842 
	C377.723053,261.179962 381.725677,261.097839 385.698517,261.354034 
	C387.045013,261.440826 388.322296,262.601898 389.745392,263.635681 
z"/>
<path fill="#6881EC" opacity="1.000000" stroke="none" 
	d="
M173.399323,344.001495 
	C228.806046,344.001373 284.212738,344.001251 340.178528,344.388672 
	C342.545868,348.828766 344.354156,352.881287 346.162445,356.933838 
	C288.672943,356.955505 231.183411,356.987732 173.693954,356.940430 
	C172.200302,356.939209 170.707367,356.069336 169.214874,354.904938 
	C170.610199,350.804016 172.004761,347.402771 173.399323,344.001495 
z"/>
<path fill="#FEFEFE" opacity="1.000000" stroke="none" 
	d="
M173.327148,343.546661 
	C172.004761,347.402771 170.610199,350.804016 169.082520,354.521118 
	C157.032288,364.070038 144.153336,363.485870 134.311981,353.090088 
	C133.074371,350.171600 132.116638,347.441620 131.046997,344.355988 
	C130.935089,340.886444 130.935089,337.772491 130.935089,334.296814 
	C145.180237,334.296814 158.815704,334.296814 173.254974,334.296814 
	C173.254974,337.264038 173.254974,340.177917 173.327148,343.546661 
z"/>
<path fill="#FEFEFE" opacity="1.000000" stroke="none" 
	d="
M346.536407,356.949463 
	C344.354156,352.881287 342.545868,348.828766 340.615356,344.389160 
	C340.637024,340.886383 340.780884,337.770660 340.941376,334.294281 
	C354.751678,334.294281 368.370728,334.294281 382.480316,334.294281 
	C382.582764,336.282074 382.682068,338.208832 382.864655,340.568390 
	C381.394623,345.471954 379.841370,349.942719 378.150940,354.736603 
	C369.315796,361.593719 355.764832,362.423828 346.536407,356.949463 
z"/>
<path fill="#FEFEFE" opacity="1.000000" stroke="none" 
	d="
M305.114105,310.007294 
	C305.058868,312.829346 304.983612,315.651154 304.954224,318.473480 
	C304.926880,321.101227 304.948395,323.729462 304.948395,326.734192 
	C272.889130,326.734192 241.261505,326.734192 208.896652,326.734192 
	C208.896652,324.742096 208.896652,322.816772 208.896042,319.982483 
	C208.853226,313.385315 208.811005,307.697113 208.839935,301.572418 
	C209.045883,294.092865 209.045883,294.091187 215.977402,294.087097 
	C220.966080,294.084137 225.954758,294.086426 230.943436,294.086487 
	C253.891357,294.086761 276.839722,294.157593 299.786774,294.017731 
	C303.594666,293.994537 305.317902,294.943573 305.001251,299.048553 
	C304.721344,302.676971 305.052643,306.352539 305.114105,310.007294 
M288.584198,314.415436 
	C277.288147,314.374023 265.992126,314.317078 254.696030,314.295990 
	C245.392059,314.278656 236.082336,314.142914 226.789642,314.470520 
	C225.262741,314.524384 223.810516,316.697083 222.323776,317.890533 
	C223.792145,318.922821 225.251709,320.839203 226.730194,320.853882 
	C246.831650,321.053589 266.936096,321.041168 287.038330,320.886230 
	C288.529022,320.874725 290.319794,319.630737 291.323669,318.421997 
	C291.674774,317.999237 290.074982,315.956238 288.584198,314.415436 
M256.500000,307.014526 
	C266.331848,307.014191 276.163727,307.000031 285.995514,307.022827 
	C288.601990,307.028900 291.717957,306.958954 291.426147,303.677094 
	C291.311462,302.387299 287.910339,300.433044 285.985352,300.408813 
	C266.657990,300.165405 247.325150,300.164825 227.997849,300.410370 
	C226.077469,300.434753 222.688843,302.404785 222.569962,303.707886 
	C222.266983,307.028900 225.418503,307.025909 228.004166,307.020813 
	C237.169418,307.002747 246.334717,307.014252 256.500000,307.014526 
z"/>
<path fill="#8473EF" opacity="1.000000" stroke="none" 
	d="
M305.512024,310.004913 
	C305.052643,306.352539 304.721344,302.676971 305.001251,299.048553 
	C305.317902,294.943573 303.594666,293.994537 299.786774,294.017731 
	C276.839722,294.157593 253.891357,294.086761 230.943436,294.086487 
	C225.954758,294.086426 220.966080,294.084137 215.977402,294.087097 
	C209.045883,294.091187 209.045883,294.092865 208.424744,301.570557 
	C206.268814,302.001892 204.599213,301.998627 202.929596,301.995331 
	C202.855789,300.173950 202.678726,298.349823 202.726807,296.531647 
	C202.896667,290.105682 205.803635,287.186493 212.339630,287.126160 
	C222.304581,287.034119 232.270950,287.098175 242.236725,287.097961 
	C261.669983,287.097534 281.103271,287.082550 300.536499,287.106445 
	C308.756073,287.116577 311.648773,289.986267 311.727386,298.171722 
	C311.762482,301.823761 311.663544,305.477081 311.501648,309.586121 
	C309.555206,310.029114 307.732605,310.015808 305.512024,310.004913 
z"/>
<path fill="#7773EE" opacity="1.000000" stroke="none" 
	d="
M202.854080,302.458679 
	C204.599213,301.998627 206.268814,302.001892 208.353607,302.007080 
	C208.811005,307.697113 208.853226,313.385315 208.826736,319.537048 
	C207.098282,320.000427 205.438522,320.000244 203.362030,320.000183 
	C202.889709,314.307556 202.834137,308.614777 202.854080,302.458679 
z"/>
<path fill="#B341F5" opacity="1.000000" stroke="none" 
	d="
M165.806854,180.958710 
	C170.513321,160.928940 170.043961,163.779358 186.171539,163.754791 
	C235.279190,163.679977 284.387054,163.726303 333.494812,163.728882 
	C342.715332,163.729370 344.606781,165.440582 346.228668,174.639694 
	C346.677185,177.183502 347.702209,179.625671 348.039185,182.527008 
	C345.944000,183.006165 344.272339,183.072769 342.600708,183.139374 
	C342.307098,182.368759 341.987885,181.606812 341.723785,180.826233 
	C338.085449,170.071548 338.087311,170.070938 326.357880,170.070938 
	C278.616852,170.070938 230.875809,170.043488 183.134842,170.094330 
	C173.708344,170.104370 176.113754,168.809158 173.212769,177.510910 
	C172.898346,178.454086 172.622604,179.410172 171.702911,180.681458 
	C169.320206,180.988007 167.563538,180.973358 165.806854,180.958710 
z"/>
<path fill="#A54CF4" opacity="1.000000" stroke="none" 
	d="
M342.658966,183.540405 
	C344.272339,183.072769 345.944000,183.006165 348.121277,182.920990 
	C350.870758,190.618927 353.114594,198.335464 355.445496,206.445343 
	C353.929382,207.218628 352.326263,207.598587 350.315430,208.001465 
	C347.510925,199.996750 345.114075,191.969101 342.658966,183.540405 
z"/>
<path fill="#A54CF4" opacity="1.000000" stroke="none" 
	d="
M165.581238,181.239807 
	C167.563538,180.973358 169.320206,180.988007 171.513855,181.003067 
	C169.872589,188.491653 167.794357,195.979828 165.501190,203.770020 
	C163.515091,204.048508 161.743942,204.024994 159.533646,204.001495 
	C161.181564,196.507996 163.268600,189.014435 165.581238,181.239807 
z"/>
<path fill="#7476ED" opacity="1.000000" stroke="none" 
	d="
M288.975159,314.534302 
	C290.074982,315.956238 291.674774,317.999237 291.323669,318.421997 
	C290.319794,319.630737 288.529022,320.874725 287.038330,320.886230 
	C266.936096,321.041168 246.831650,321.053589 226.730194,320.853882 
	C225.251709,320.839203 223.792145,318.922821 222.323776,317.890533 
	C223.810516,316.697083 225.262741,314.524384 226.789642,314.470520 
	C236.082336,314.142914 245.392059,314.278656 254.696030,314.295990 
	C265.992126,314.317078 277.288147,314.374023 288.975159,314.534302 
z"/>
<path fill="#8473EF" opacity="1.000000" stroke="none" 
	d="
M256.000000,307.014526 
	C246.334717,307.014252 237.169418,307.002747 228.004166,307.020813 
	C225.418503,307.025909 222.266983,307.028900 222.569962,303.707886 
	C222.688843,302.404785 226.077469,300.434753 227.997849,300.410370 
	C247.325150,300.164825 266.657990,300.165405 285.985352,300.408813 
	C287.910339,300.433044 291.311462,302.387299 291.426147,303.677094 
	C291.717957,306.958954 288.601990,307.028900 285.995514,307.022827 
	C276.163727,307.000031 266.331848,307.014191 256.000000,307.014526 
z"/>
</svg>