<?xml version="1.0" standalone="no"?>
<!DOCTYPE svg PUBLIC "-//W3C//DTD SVG 20010904//EN"
 "http://www.w3.org/TR/2001/REC-SVG-20010904/DTD/svg10.dtd">
<svg version="1.0" xmlns="http://www.w3.org/2000/svg"
 width="512.000000pt" height="512.000000pt" viewBox="0 0 512.000000 512.000000"
 preserveAspectRatio="xMidYMid meet">

<g transform="translate(0.000000,512.000000) scale(0.100000,-0.100000)"
fill="#000000" stroke="none">
<path d="M2390 5114 c-440 -33 -864 -175 -1225 -411 -159 -104 -260 -187 -406
-333 -189 -189 -328 -371 -444 -584 -300 -552 -389 -1239 -237 -1831 l18 -70
567 -3 567 -2 0 190 0 190 184 0 c166 0 186 2 207 19 52 42 11 187 -69 247
-50 39 -113 54 -224 54 l-98 0 0 53 c0 89 -6 88 295 85 l259 -3 42 -120 c26
-72 52 -127 65 -137 20 -17 67 -18 671 -18 l649 0 23 23 c14 14 39 71 62 140
l38 117 262 0 c301 0 294 2 294 -87 l0 -51 -117 -4 c-131 -4 -171 -18 -230
-80 -62 -65 -84 -177 -43 -218 19 -19 33 -20 205 -20 l185 0 0 -190 0 -190
564 0 c311 0 567 3 569 8 12 18 58 249 73 362 22 165 22 463 0 630 -99 746
-499 1394 -1116 1805 -334 223 -676 353 -1080 410 -107 15 -410 26 -510 19z
m1014 -1524 c48 -11 85 -37 109 -77 15 -27 217 -698 217 -723 0 -6 -24 -10
-53 -10 l-53 0 -94 331 c-52 183 -103 342 -113 355 l-18 24 -838 0 -838 0 -19
-21 c-12 -13 -56 -150 -115 -352 l-95 -332 -57 -3 c-43 -2 -56 0 -52 10 3 7
50 168 105 358 55 190 108 356 118 369 26 36 65 62 103 71 48 11 1645 12 1693
0z m-9 -217 c10 -32 52 -178 95 -325 l78 -268 -1008 0 -1008 0 78 268 c43 147
85 293 95 325 l16 57 819 0 819 0 16 -57z m-1975 -250 c0 -5 -15 -57 -33 -118
l-33 -110 -101 -3 c-131 -4 -133 -2 -133 122 0 58 4 96 12 104 13 13 288 18
288 5z m2568 -5 c8 -8 12 -46 12 -104 0 -124 -2 -126 -132 -122 l-101 3 -27
91 c-15 51 -30 103 -34 118 l-6 26 138 0 c94 0 142 -4 150 -12z m-718 -405 c0
-25 -65 -200 -78 -210 -23 -19 -1255 -19 -1269 0 -10 11 -73 194 -73 210 0 4
320 7 710 7 391 0 710 -3 710 -7z m-1797 -207 c62 -26 117 -103 117 -162 l0
-24 -180 0 -180 0 0 100 0 100 105 0 c68 0 117 -5 138 -14z m2417 -86 l0 -100
-180 0 c-174 0 -180 1 -180 20 0 30 27 91 53 119 42 45 93 61 205 61 l102 0 0
-100z"/>
<path d="M2041 2224 c-19 -24 -21 -40 -21 -185 l0 -159 25 0 24 0 3 153 3 152
483 3 482 2 0 -155 0 -155 30 0 30 0 0 163 c0 158 -1 164 -23 185 -23 22 -24
22 -519 22 l-497 0 -20 -26z"/>
<path d="M2227 2113 c-13 -12 -7 -41 9 -47 9 -3 154 -6 323 -6 322 0 353 4
338 44 -6 14 -39 16 -335 16 -181 0 -332 -3 -335 -7z"/>
<path d="M2223 1964 c-15 -40 16 -44 337 -44 321 0 352 4 337 44 -6 14 -39 16
-337 16 -298 0 -331 -2 -337 -16z"/>
<path d="M593 1853 c274 -2 720 -2 990 0 271 1 47 2 -498 2 -545 0 -766 -1
-492 -2z"/>
<path d="M3532 1853 c274 -2 722 -2 995 0 274 1 50 2 -497 2 -547 0 -771 -1
-498 -2z"/>
</g>
</svg>
